<svg xmlns="http://www.w3.org/2000/svg" width="62.413" height="62.414" viewBox="0 0 62.413 62.414"><defs><style>.a{fill:#fff;}</style></defs><g transform="translate(0.24 0.227)"><g transform="translate(-0.239 -0.227)"><g transform="translate(0)"><path class="a" d="M62.417,19.126a3.024,3.024,0,0,0-3.02-3.02,2.988,2.988,0,0,0-.985.178L53.9,10.646a2.989,2.989,0,0,0,.462-1.586,3.016,3.016,0,0,0-5.178-2.106L41.25,3.292c.008-.091.027-.178.027-.272a3.013,3.013,0,0,0-5.855-1.007H23.978A3.013,3.013,0,0,0,18.124,3.02a2.953,2.953,0,0,0,.037.366l-4.993,2.5A3.009,3.009,0,0,0,8.519,9.64L4.008,15.278a2.988,2.988,0,0,0-.985-.178,3.013,3.013,0,0,0-1.007,5.855v6.411A3.012,3.012,0,1,0,5.631,31.7l5.5,1A3.016,3.016,0,0,0,14.1,35.233c.04,0,.079-.01.119-.012l1.921,4.8a3.011,3.011,0,1,0,4.44,4L29.216,46.5a3.008,3.008,0,0,0,1.994,2.644v7.418a3.02,3.02,0,1,0,2.013,0V49.141a3,3,0,0,0,.845-5.2l1.2-3.607L44.3,43.342A3.013,3.013,0,0,0,46.31,46.12V56.558a3.02,3.02,0,1,0,2.013,0V46.121a2.973,2.973,0,0,0,1.817-3.877l7.724-6.437a2.986,2.986,0,0,0,1.532.432A3.013,3.013,0,0,0,60.4,30.385V21.96A3.014,3.014,0,0,0,62.417,19.126ZM51.343,8.053A1.007,1.007,0,1,1,50.337,9.06,1.008,1.008,0,0,1,51.343,8.053ZM49.912,11.7a2.862,2.862,0,0,0,2.415.2l4.511,5.639a2.994,2.994,0,0,0-.461,1.585,2.956,2.956,0,0,0,.048.474l-7.131,3.89L44.1,19.163a2.934,2.934,0,0,0-.035-2.2ZM37.25,28.186a2.97,2.97,0,0,0-1.294.3l-4.265-4.265,7.53-3.9a2.964,2.964,0,0,0,3.588.389l4.583,3.819-8.137,4.438A2.993,2.993,0,0,0,37.25,28.186Zm1.007,3.02A1.007,1.007,0,1,1,37.25,30.2,1.008,1.008,0,0,1,38.257,31.206ZM23.037,20.12l1.69,5.446-8.575,4.446a3.018,3.018,0,0,0-1.289-.709l-1.4-10.7,6.9-.345A3.018,3.018,0,0,0,23.037,20.12Zm-.887-3.007a1.007,1.007,0,1,1,1.007,1.007A1.008,1.008,0,0,1,22.15,17.113Zm3.182,10.408,2.553,8.227L17.111,32.157a2.933,2.933,0,0,0-.036-.354Zm-.007-6.815,3,3-1.781.923Zm.55-2.3a2.953,2.953,0,0,0,.048-2.5l4.78-4.461,7.7,5.778a2.974,2.974,0,0,0-.151.895,3.068,3.068,0,0,0,.041.411l-8.1,4.2Zm14.4-.287a1.007,1.007,0,1,1,1.007,1.007A1.008,1.008,0,0,1,40.27,18.12Zm8.786,7.794,7.213,6.011L40.641,30.5Zm-10.8-23.9A1.007,1.007,0,1,1,37.25,3.02,1.008,1.008,0,0,1,38.257,2.013ZM36.874,5.689a2.965,2.965,0,0,0,3.542-.564l7.934,3.662c-.008.092-.027.179-.027.273a3,3,0,0,0,.232,1.156l-5.847,5.262a2.957,2.957,0,0,0-3.1.131L32.2,10.052ZM35.422,4.027c.024.065.041.134.068.2l-4.93,4.6-6.4-4.8ZM21.144,2.013A1.007,1.007,0,1,1,20.137,3.02,1.008,1.008,0,0,1,21.144,2.013ZM14.1,8.053a2.917,2.917,0,0,0-.037-.365l4.993-2.5a3,3,0,0,0,3.763.34l6.25,4.688L24.54,14.443a2.983,2.983,0,0,0-1.383-.35,3.014,3.014,0,0,0-2.879,2.155l-7.071.353-.765-5.87A3.012,3.012,0,0,0,14.1,8.053Zm-3.02-1.007a1.007,1.007,0,1,1-1.007,1.007A1.008,1.008,0,0,1,11.077,7.047ZM10.093,10.9a3.055,3.055,0,0,0,.353.11l.743,5.7-5.375.269a3,3,0,0,0-.233-.439ZM3.024,17.113A1.007,1.007,0,1,1,2.017,18.12,1.008,1.008,0,0,1,3.024,17.113Zm0,14.093A1.007,1.007,0,1,1,4.031,30.2,1.008,1.008,0,0,1,3.024,31.206Zm8.466-.49L6,29.717a3.014,3.014,0,0,0-1.965-2.353V20.954A3.015,3.015,0,0,0,5.9,18.983l5.549-.278,1.4,10.761A3.023,3.023,0,0,0,11.49,30.716Zm2.607,2.5A1.007,1.007,0,1,1,15.1,32.213,1.008,1.008,0,0,1,14.1,33.22Zm4.027,10.067a1.007,1.007,0,1,1,1.007-1.007A1.008,1.008,0,0,1,18.124,43.286Zm11.641,1.271-8.639-2.468a3.016,3.016,0,0,0-3-2.83c-.04,0-.079.01-.119.012l-1.921-4.8a3.1,3.1,0,0,0,.383-.406l12.154,4.052L30.416,43.9A3.069,3.069,0,0,0,29.765,44.558ZM32.217,60.4a1.007,1.007,0,1,1,1.007-1.007A1.008,1.008,0,0,1,32.217,60.4Zm0-13.087a1.007,1.007,0,1,1,1.007-1.007A1.008,1.008,0,0,1,32.217,47.313Zm.034-4.292L30.972,38.9l2.388.8ZM34,37.785l-3.759-1.253L27.149,26.58,29.817,25.2l4.716,4.716a2.971,2.971,0,0,0-.3,1.294,3,3,0,0,0,1.17,2.369ZM47.317,60.4a1.007,1.007,0,1,1,1.007-1.007A1.008,1.008,0,0,1,47.317,60.4Zm0-16.106a1.007,1.007,0,1,1,1.007-1.007A1.008,1.008,0,0,1,47.317,44.293Zm1.532-3.6a2.967,2.967,0,0,0-3.9.739l-9.042-3.014,1.4-4.2a3.013,3.013,0,0,0,2.679-1.755l16.5,1.5a2.966,2.966,0,0,0,.093.3Zm2.109-15.822,6.434-3.509a2.989,2.989,0,0,0,1,.594v8.425a3.029,3.029,0,0,0-.526.247ZM59.4,34.226A1.007,1.007,0,1,1,60.4,33.22,1.008,1.008,0,0,1,59.4,34.226Zm0-14.093A1.007,1.007,0,1,1,60.4,19.126,1.008,1.008,0,0,1,59.4,20.133Z" transform="translate(-0.004)"/></g></g></g></svg>