<svg xmlns="http://www.w3.org/2000/svg" width="62.935" height="62.887" viewBox="0 0 62.935 62.887"><defs><style>.a{fill:#fff;stroke:#fff;stroke-width:0.5px;fill-rule:evenodd;}</style></defs><g transform="translate(0.25 0.25)"><path class="a" d="M32.071,975.654v-5.376l16.15-11.412c.615-.456,1.184-.8,1.777-1.253l10.842-7.7v5.49a3.332,3.332,0,0,0-.911.569l-13.485,9.544C46.171,965.723,32.6,975.495,32.071,975.654ZM1.594,949.915l25.1,17.812c.592.41,1.162.8,1.777,1.253a13.984,13.984,0,0,0,1.891,1.3v5.376c-.569-.159-9.817-6.924-10.751-7.54l-7.221-5.125c-1.184-.888-2.346-1.64-3.553-2.506L2.551,956.02a4.273,4.273,0,0,0-.957-.615Zm23.757,4.647c-.046,1.048.114.82-2.665,2.665-1.389.934-2.756,1.891-4.146,2.8-.137-.091-.251-.2-.41-.319a4.868,4.868,0,0,0-.433-.3c-.364-.251-.547-.41-.911-.661a13.274,13.274,0,0,0-1.913-1.276c.137-.5,2.232-1.686,2.665-1.982,4.943-3.3,4.168-2.323,4.168-5.33,0-2.027-.41-3.667,1.344-3.667.888,0,1.913,1.435,2.118,2.392A23.507,23.507,0,0,1,25.352,954.562Zm19.771-5.74-13.052,9.134v-8.77c0-1,.159-2.187-.866-2.187-1,0-.843,1.071-.843,2.073v8.883a30.966,30.966,0,0,0-3.417-2.3c0-2.255.228-5.034-.205-7.016-.319-1.549-1.845-3.713-3.576-3.713-3.508,0-3.052,3.1-3.052,5.717a8.142,8.142,0,0,1-2.027-1.367,1.891,1.891,0,0,0-.774-.456v-9.157c0-.979.251-2.437-.729-2.437a.921.921,0,0,0-.843.979v10.865c0,1.116,3.029,2.3,3.644,3.166a53.635,53.635,0,0,1-5.968,4.009,18.882,18.882,0,0,1-2.847-1.913c-1.184-.888-7.175-5.239-8.382-5.877.433-.592,8.656-5.945,9.635-6.583.547-.364,2.187-1.093,2.027-1.913-.3-1.708-2.688.433-4.191,1.435L1.5,946.908c-.387.273-1.5.866-1.5,1.3v7.676c0,.478,1.389,1.253,1.777,1.526l19.452,13.826c3.007,2.027,5.877,4.214,8.861,6.264,1.412.979,1.412.661,3.166-.661.661-.478,1.253-.911,1.936-1.367l7.836-5.558c.661-.456,1.253-.888,1.936-1.367l15.6-11.093c.41-.3,1.868-1.093,1.868-1.572v-7.676c0-.478-2.528-2-3.029-2.346l-6.423-4.305a26.6,26.6,0,0,0-3.348-2.118.791.791,0,0,0-.547,1.389c.433.456,7.175,4.874,7.927,5.353,1.071.729,2.1,1.549,3.212,2.164-.41.547-4.419,3.189-5.307,3.827l-5.49,3.9c-1.276.843-2.346,1.731-3.622,2.574l-5.421,3.849c-.638.478-1.253.843-1.868,1.321-1.048.774-6.173,4.533-7.312,5.125-.752-.387-10.842-7.494-11.207-8.041.615-.159,5.216-3.44,6.082-4.032a42.147,42.147,0,0,0,3.849,2.756c1.3.888,1.435.888,2.711,0l12.983-9.293c.5-.364,1.071-.524,1.071-1.253V937.979a.921.921,0,0,0-.843-.979c-.979,0-.752,1.344-.729,2.3Z" transform="translate(0 -915.5)"/><path class="a" d="M468.187,15.352c.774-.5,1.458-1.025,2.187-1.572L485.749,2.437V22.322c0,.934-.091,2.073.843,2.073.911,0,.866-1.048.866-1.959v-20l15.284,11.3c.8.592,1.458,1.093,2.278,1.617a16.58,16.58,0,0,1-2.232,1.572l-16.2,10.751c-1.526-1.025-3.029-2.027-4.6-3.075l-4.624-3.052a9.122,9.122,0,0,1-1.093-.729l-5.786-3.849A17.61,17.61,0,0,1,468.187,15.352ZM486.432,0h.364a6.374,6.374,0,0,1,1.276.843l18.063,13.393c2.05,1.549,1,1.686-1.389,3.3l-15.466,10.25c-2.8,1.891-2.369,2-4.123.843l-7.745-5.171c-3.052-2.05-7.494-4.806-10.364-6.856-.706-.5-1.048-.456-1.048-1.253,0-.524,4.556-3.69,4.988-4.009l7.767-5.763c.888-.683,1.731-1.276,2.6-1.913.456-.342.866-.661,1.321-1L485.2.8A5.131,5.131,0,0,1,486.432,0Z" transform="translate(-455.385)"/><path class="a" d="M1585.708,1153.879v-2.824a26.75,26.75,0,0,1,2.688-1.686v2.665l-1.344.865C1586.619,1153.2,1586.164,1153.583,1585.708,1153.879Zm-1.708-2.824v4.146c0,.569.273.979.865.979.547,0,2.392-1.458,2.916-1.822,2.893-2.027,2.323-1,2.323-6.218,0-.979-.524-1.481-1.367-1-.569.319-1.162.8-1.754,1.184l-2.574,1.686A1.211,1.211,0,0,0,1584,1151.054Z" transform="translate(-1547.92 -1120.828)"/></g></svg>