<svg xmlns="http://www.w3.org/2000/svg" width="59.213" height="59.213" viewBox="0 0 59.213 59.213"><defs><style>.a{fill:#fff;}</style></defs><path class="a" d="M29.606,0A29.606,29.606,0,1,0,59.213,29.606,29.606,29.606,0,0,0,29.606,0Zm16,7.532q-1.656.494-3.213,1.053a4.555,4.555,0,0,0-3.53-1.742,4.446,4.446,0,0,0-.991.114c-.991-1.674-1.924-3.063-2.676-4.122A27.158,27.158,0,0,1,45.607,7.532ZM37.9,46.357a4.45,4.45,0,0,0-1.458-.262,4.555,4.555,0,0,0-3.746,1.993,33.843,33.843,0,0,1-11.672-8.233A4.453,4.453,0,0,0,19.7,33.023a30.631,30.631,0,0,1,7.812-12.879,31.622,31.622,0,0,1,11.2,2.63,4.5,4.5,0,0,0,3.527,5.294l.129.024A31.428,31.428,0,0,1,37.9,46.357Zm.82,4.259a2.277,2.277,0,1,1-2.277-2.277A2.277,2.277,0,0,1,38.716,50.616ZM15.942,21.761A35.231,35.231,0,0,1,24.3,20.212a32.782,32.782,0,0,0-6.832,12.275,4.465,4.465,0,0,0-1.332.228,37.25,37.25,0,0,1-2.471-6.525,4.555,4.555,0,0,0,2.4-3.974A4.417,4.417,0,0,0,15.942,21.761Zm22.911-5.819a4.48,4.48,0,0,0,.786-.08q.752,1.947,1.31,3.883a4.557,4.557,0,0,0-1.139.979A34.165,34.165,0,0,0,29.9,18.071,38.808,38.808,0,0,1,35.437,14.3,4.486,4.486,0,0,0,38.853,15.942Zm-2.277-4.555a2.26,2.26,0,1,0,.034,0Zm4.418,12.264a2.277,2.277,0,1,1,2.277,2.277A2.277,2.277,0,0,1,40.994,23.651ZM12.173,8.643A27.158,27.158,0,0,1,29.606,2.277a16.421,16.421,0,0,1,2.369.114,49.553,49.553,0,0,1,3.872,5.694,4.487,4.487,0,0,0-1.514,3.3,4.43,4.43,0,0,0,.08.808,39.923,39.923,0,0,0-7.8,5.694,36.712,36.712,0,0,0-11.387,1.754,4.555,4.555,0,0,0-3.1-1.833A45.846,45.846,0,0,1,12.173,8.643Zm-.649,11.376h0l.011.011a1.61,1.61,0,1,1-.011-.011ZM9.679,11a50.47,50.47,0,0,0,.137,7.083A4.555,4.555,0,0,0,7,22.262a4.476,4.476,0,0,0,.08.831,45.874,45.874,0,0,0-4.555,2.813A27.2,27.2,0,0,1,9.679,11Zm-7.4,18.607v-.66a40.831,40.831,0,0,1,5.694-3.8,4.487,4.487,0,0,0,3.416,1.628,39.5,39.5,0,0,0,2.847,7.162,4.487,4.487,0,0,0,1.708,7.276,44.878,44.878,0,0,0,1,12.526A27.329,27.329,0,0,1,2.277,29.606ZM15.293,37h-.046a2.255,2.255,0,1,0,.046,0Zm13.516,19.87a27.112,27.112,0,0,1-9.212-1.89,42.507,42.507,0,0,1-1.378-13.528A4.42,4.42,0,0,0,19.2,41.2a36.084,36.084,0,0,0,12.754,9.11v.353a4.475,4.475,0,0,0,.8,2.562A50.465,50.465,0,0,1,28.809,56.867Zm3.555-.127a28.487,28.487,0,0,0,2.07-2.082,4.453,4.453,0,0,0,1.993.478,4.555,4.555,0,0,0,3.849-2.186c.82.194,1.651.376,2.505.524A27.067,27.067,0,0,1,32.365,56.74Zm13.3-5.1c-1.625-.228-3.2-.523-4.728-.875v-.148A4.474,4.474,0,0,0,39.8,47.632,33.66,33.66,0,0,0,44.683,27.9a4.556,4.556,0,0,0,1.48-.865A54.475,54.475,0,0,1,56,36.518,27.329,27.329,0,0,1,45.664,51.639Zm10.93-17.967a55.126,55.126,0,0,0-9.11-8.529,4.466,4.466,0,0,0,.273-1.492A4.555,4.555,0,0,0,43.2,19.1q-.6-2.107-1.435-4.236a4.487,4.487,0,0,0,1.606-3.473,4.407,4.407,0,0,0-.068-.695c1.446-.512,2.949-.991,4.555-1.423a27.238,27.238,0,0,1,8.768,24.357Z"/></svg>