<svg xmlns="http://www.w3.org/2000/svg" width="84.666" height="84.667" viewBox="0 0 84.666 84.667">
  <g id="Contact_Benefits_icon1" transform="translate(-0.9 -0.9)">
    <path id="Path_444" data-name="Path 444" d="M13,14h2.725v2.725H13Z" transform="translate(4.348 4.711)" fill="#1f365c" stroke="#eef1f4" stroke-width="0.2"/>
    <path id="Path_445" data-name="Path 445" d="M9,14h2.725v2.725H9Z" transform="translate(2.899 4.711)" fill="#1f365c" stroke="#eef1f4" stroke-width="0.2"/>
    <path id="Path_446" data-name="Path 446" d="M5,14H7.725v2.725H5Z" transform="translate(1.449 4.711)" fill="#1f365c" stroke="#eef1f4" stroke-width="0.2"/>
    <path id="Path_447" data-name="Path 447" d="M32.885,22h-21.8A4.092,4.092,0,0,0,7,26.087v2.725a4.082,4.082,0,0,0,2.725,3.836v3.227A4.078,4.078,0,0,0,7,39.711v2.725a4.082,4.082,0,0,0,2.725,3.836V49.5A4.078,4.078,0,0,0,7,53.334v2.725a4.092,4.092,0,0,0,4.087,4.087h21.8a4.092,4.092,0,0,0,4.087-4.087V53.334A4.082,4.082,0,0,0,34.247,49.5V46.27a4.082,4.082,0,0,0,2.725-3.836V39.709a4.082,4.082,0,0,0-2.725-3.836V32.645a4.082,4.082,0,0,0,2.725-3.836V26.084A4.091,4.091,0,0,0,32.885,22ZM12.449,35.624V32.9H31.522v2.725Zm0,13.624V46.522H31.522v2.725Zm21.8,6.812a1.364,1.364,0,0,1-1.362,1.362h-21.8a1.364,1.364,0,0,1-1.362-1.362V53.334a1.364,1.364,0,0,1,1.362-1.362h21.8a1.364,1.364,0,0,1,1.362,1.362Zm0-13.624A1.364,1.364,0,0,1,32.885,43.8h-21.8a1.364,1.364,0,0,1-1.362-1.362V39.711a1.364,1.364,0,0,1,1.362-1.362h21.8a1.364,1.364,0,0,1,1.362,1.362Zm0-13.624a1.364,1.364,0,0,1-1.362,1.362h-21.8a1.364,1.364,0,0,1-1.362-1.362V26.087a1.364,1.364,0,0,1,1.362-1.362h21.8a1.364,1.364,0,0,1,1.362,1.362Z" transform="translate(2.174 7.61)" fill="#1f365c" stroke="#eef1f4" stroke-width="0.2"/>
    <path id="Path_448" data-name="Path 448" d="M62.306,25.522H81.379a4.092,4.092,0,0,0,4.087-4.087V5.087A4.092,4.092,0,0,0,81.379,1H62.306a4.092,4.092,0,0,0-4.087,4.087V11.9H54.132a4.092,4.092,0,0,0-4.087,4.087V32.334A1.364,1.364,0,0,1,48.683,33.7H47.32V17.348a4.092,4.092,0,0,0-4.087-4.087H5.087A4.092,4.092,0,0,0,1,17.348v51.77a4.092,4.092,0,0,0,4.087,4.087H43.233a4.092,4.092,0,0,0,4.087-4.087V52.77h1.362a1.364,1.364,0,0,1,1.362,1.362V70.48a4.092,4.092,0,0,0,4.087,4.087h4.087v6.812a4.092,4.092,0,0,0,4.087,4.087H81.379a4.092,4.092,0,0,0,4.087-4.087V65.031a4.092,4.092,0,0,0-4.087-4.087H62.306a4.092,4.092,0,0,0-4.087,4.087v6.812H54.132A1.364,1.364,0,0,1,52.77,70.48V54.132a4.092,4.092,0,0,0-4.087-4.087H47.32V44.6h10.9v6.812a4.092,4.092,0,0,0,4.087,4.087H81.379a4.092,4.092,0,0,0,4.087-4.087V35.059a4.092,4.092,0,0,0-4.087-4.087H62.306a4.092,4.092,0,0,0-4.087,4.087v6.812H47.32V36.421h1.362a4.092,4.092,0,0,0,4.087-4.087V15.986a1.364,1.364,0,0,1,1.362-1.362h4.087v6.812A4.092,4.092,0,0,0,62.306,25.522ZM81.379,82.742H62.306a1.364,1.364,0,0,1-1.362-1.362V69.118h21.8V81.379A1.364,1.364,0,0,1,81.379,82.742ZM62.306,63.669H81.379a1.364,1.364,0,0,1,1.362,1.362v1.362h-21.8V65.031A1.364,1.364,0,0,1,62.306,63.669Zm19.073-10.9H62.306a1.364,1.364,0,0,1-1.362-1.362V39.146h21.8V51.407A1.364,1.364,0,0,1,81.379,52.77ZM62.306,33.7H81.379a1.364,1.364,0,0,1,1.362,1.362v1.362h-21.8V35.059A1.364,1.364,0,0,1,62.306,33.7ZM5.087,15.986H43.233A1.364,1.364,0,0,1,44.6,17.348V24.16H3.725V17.348A1.364,1.364,0,0,1,5.087,15.986ZM43.233,70.48H5.087a1.364,1.364,0,0,1-1.362-1.362V26.885H44.6V69.118A1.364,1.364,0,0,1,43.233,70.48ZM81.379,22.8H62.306a1.364,1.364,0,0,1-1.362-1.362V9.174h21.8V21.435A1.364,1.364,0,0,1,81.379,22.8ZM62.306,3.725H81.379a1.364,1.364,0,0,1,1.362,1.362V6.449h-21.8V5.087A1.364,1.364,0,0,1,62.306,3.725Z" transform="translate(0 0)" fill="#1f365c" stroke="#eef1f4" stroke-width="0.2"/>
    <path id="Path_449" data-name="Path 449" d="M47,9H63.348v2.725H47Z" transform="translate(16.669 2.899)" fill="#1f365c" stroke="#eef1f4" stroke-width="0.2"/>
    <path id="Path_450" data-name="Path 450" d="M57,13h2.725v2.725H57Z" transform="translate(20.292 4.348)" fill="#1f365c" stroke="#eef1f4" stroke-width="0.2"/>
    <path id="Path_451" data-name="Path 451" d="M47,13H57.9v2.725H47Z" transform="translate(16.669 4.348)" fill="#1f365c" stroke="#eef1f4" stroke-width="0.2"/>
    <path id="Path_452" data-name="Path 452" d="M47,53H63.348v2.725H47Z" transform="translate(16.669 18.843)" fill="#1f365c" stroke="#eef1f4" stroke-width="0.2"/>
    <path id="Path_453" data-name="Path 453" d="M57,57h2.725v2.725H57Z" transform="translate(20.292 20.292)" fill="#1f365c" stroke="#eef1f4" stroke-width="0.2"/>
    <path id="Path_454" data-name="Path 454" d="M47,57H57.9v2.725H47Z" transform="translate(16.669 20.292)" fill="#1f365c" stroke="#eef1f4" stroke-width="0.2"/>
    <path id="Path_455" data-name="Path 455" d="M47,31H63.348v2.725H47Z" transform="translate(16.669 10.871)" fill="#1f365c" stroke="#eef1f4" stroke-width="0.2"/>
    <path id="Path_456" data-name="Path 456" d="M57,35h2.725v2.725H57Z" transform="translate(20.292 12.32)" fill="#1f365c" stroke="#eef1f4" stroke-width="0.2"/>
    <path id="Path_457" data-name="Path 457" d="M47,35H57.9v2.725H47Z" transform="translate(16.669 12.32)" fill="#1f365c" stroke="#eef1f4" stroke-width="0.2"/>
  </g>
</svg>
