<svg xmlns="http://www.w3.org/2000/svg" width="73.08" height="84.979" viewBox="0 0 73.08 84.979">
  <path id="Contact_Benefits_icon3" d="M9135.468,1722.239l-34.641-19.871a1.657,1.657,0,0,1-.826-1.418v-41.287a1.651,1.651,0,0,1,.822-1.427l34.643-20.016a1.662,1.662,0,0,1,1.65,0l34.641,20.016a1.653,1.653,0,0,1,.824,1.427v41.273s0,.009,0,.014a1.7,1.7,0,0,1-.829,1.42s-34.638,19.869-34.638,19.869a1.655,1.655,0,0,1-1.645,0Zm-30.513-21.305,31.335,17.972,31.333-17.972c-1.223-.707-27.608-15.921-31.333-18.069Zm41.383-41.153a1.645,1.645,0,0,1,1.365.99l14.229,33.073,7.35,4.238v-37.465l-31.342-18.11v28.315l6.874-10.313a1.649,1.649,0,0,1,1.373-.734C9146.237,1659.774,9146.288,1659.776,9146.338,1659.78Zm-43.038.836v37.463l8.93-5.131,7.707-17.348a1.651,1.651,0,0,1,1.508-.981h13.2v-32.111Zm34.641,16.151v3.241l19.215,11.08-11.282-26.22Zm-20.856,13.377,17.558-10.136v-2.09h-12.125Zm7.659,10.868c0-3.761,4.966-6.6,11.547-6.6s11.547,2.836,11.547,6.6-4.963,6.6-11.547,6.6S9124.743,1704.773,9124.743,1701.012Zm3.3,0c0,1.347,3.214,3.3,8.248,3.3s8.248-1.952,8.248-3.3-3.211-3.3-8.248-3.3S9128.042,1699.667,9128.042,1701.012Zm-18.145-35.96a6.6,6.6,0,1,1,6.6,6.6A6.606,6.606,0,0,1,9109.9,1665.052Zm3.3,0a3.3,3.3,0,1,0,3.3-3.3A3.3,3.3,0,0,0,9113.2,1665.052Z" transform="translate(-9099.751 -1637.728)" fill="#1f365c" stroke="#eef1f4" stroke-width="0.5"/>
</svg>
