<svg xmlns="http://www.w3.org/2000/svg" width="86.681" height="86.681" viewBox="0 0 86.681 86.681">
  <g id="Contact_Benefits_icon4" transform="translate(0.9 0.9)">
    <path id="Path_476" data-name="Path 476" d="M3.567,47.167a24.658,24.658,0,0,1,9.033-2.24c3.208,0,7,3.067,8.189,4.245l1.755,1.748L24.3,49.176c1.191-1.182,4.984-4.249,8.192-4.249,2.711,0,5.839,2.19,7.46,3.579V77.421a7.46,7.46,0,0,0,14.921,0V72.448H49.9v4.974a2.487,2.487,0,0,1-4.974,0V48.507c1.624-1.392,4.751-3.58,7.46-3.58,3.208,0,7,3.067,8.189,4.245l1.755,1.748,1.758-1.745c1.191-1.182,4.984-4.249,8.192-4.249a24.654,24.654,0,0,1,9.032,2.24l3.567,1.726V44.927c0-22.424-17.631-38.754-39.954-39.888V0H39.954V5.039C17.623,6.174,0,22.511,0,44.927L0,48.88Zm21.661-4.924c.765-10.266,5.317-28.4,14.726-31.836V42.361a14.74,14.74,0,0,0-7.46-2.407A14.571,14.571,0,0,0,25.228,42.243Zm19.7.117V10.408C54.378,13.859,58.89,32,59.654,42.244a14.57,14.57,0,0,0-7.266-2.29A14.742,14.742,0,0,0,44.927,42.361Zm34.793-1.122a25.388,25.388,0,0,0-7.439-1.285,14.89,14.89,0,0,0-7.628,2.51c-.686-10.23-3.775-22.857-10.275-30.838C68.343,15.724,78.258,26.964,79.721,41.239ZM30.5,11.626C24,19.607,20.913,32.235,20.227,42.464a14.89,14.89,0,0,0-7.628-2.51,25.388,25.388,0,0,0-7.439,1.285C6.624,26.964,16.538,15.724,30.5,11.626Z" fill="#1f365c" stroke="#eef1f4" stroke-width="1.8"/>
  </g>
</svg>
