<svg xmlns="http://www.w3.org/2000/svg" width="85.198" height="85.083" viewBox="0 0 85.198 85.083">
  <g id="Contact_Benefits_icon5" transform="translate(0.366 0.365)">
    <path id="Path_477" data-name="Path 477" d="M83.983,68.453l-19.8-19.8a1.65,1.65,0,0,0-2.333,0l-5.432,5.432-1.956-1.956L64.846,41.75a1.65,1.65,0,0,0,0-2.333l-4.659-4.659c.339.03.678.046,1.018.046a11.512,11.512,0,0,0,8.166-3.377,1.65,1.65,0,0,0,0-2.333l-5.833-5.833L66.5,20.3h0a4.951,4.951,0,1,0-2.333-2.333h0l-2.958,2.958L55.372,15.1a1.65,1.65,0,0,0-2.333,0,11.527,11.527,0,0,0-3.331,9.184L45.049,19.62a1.65,1.65,0,0,0-2.333,0L32.334,30l-1.956-1.956,5.432-5.432a1.65,1.65,0,0,0,0-2.333L16.014.483a1.65,1.65,0,0,0-2.333,0l-13.2,13.2a1.65,1.65,0,0,0,0,2.333l19.8,19.8a1.65,1.65,0,0,0,2.333,0l5.433-5.432L30,32.335,14.67,47.666a1.65,1.65,0,0,0,0,2.333l19.8,19.8a1.65,1.65,0,0,0,2.333,0L52.131,54.465l1.956,1.956-5.432,5.432a1.65,1.65,0,0,0,0,2.333l19.8,19.8a1.65,1.65,0,0,0,2.333,0l13.2-13.2A1.65,1.65,0,0,0,83.983,68.453ZM68.629,14.188a1.65,1.65,0,1,1-1.65,1.65A1.652,1.652,0,0,1,68.629,14.188ZM54.323,18.712l5.715,5.715h0l5.715,5.715A8.25,8.25,0,0,1,54.323,18.712Zm-26.278,7-4.266-4.266,4.266-4.266,4.266,4.266ZM10.581,21.447l4.266-4.266,4.266,4.266-4.266,4.266Zm6.6-6.6,4.266-4.266,4.266,4.266-4.266,4.266ZM14.847,3.983l4.266,4.266-4.266,4.266L10.581,8.249Zm-6.6,6.6,4.266,4.266L8.248,19.114,3.982,14.848Zm13.2,21.73L17.18,28.046l4.266-4.266,4.266,4.266ZM43.883,23.12,61.347,40.584,50.965,50.965h0L42.233,59.7,24.769,42.234,33.5,33.5h0ZM35.634,66.3,18.17,48.833l4.266-4.266L39.9,62.031Zm23.12,3.323,4.266-4.266,4.266,4.266L63.02,73.885Zm6.6-6.6,4.266-4.266,4.266,4.266-4.266,4.266ZM63.02,52.156l4.266,4.266L63.02,60.687l-4.266-4.266Zm-6.6,6.6,4.266,4.266-4.266,4.266L52.155,63.02Zm13.2,21.73-4.266-4.266,4.266-4.266,4.266,4.266Zm6.6-6.6-4.266-4.266,4.266-4.266,4.266,4.266Z" transform="translate(0 0)" fill="#1f365c" stroke="#eef1f4" stroke-width="0.5"/>
    <path id="Path_478" data-name="Path 478" d="M222.6,229.2a6.6,6.6,0,1,0-6.6-6.6A6.607,6.607,0,0,0,222.6,229.2Zm0-9.9a3.3,3.3,0,1,1-3.3,3.3A3.3,3.3,0,0,1,222.6,219.3Z" transform="translate(-180.366 -180.365)" fill="#1f365c" stroke="#eef1f4" stroke-width="0.5"/>
    <circle id="Ellipse_95" data-name="Ellipse 95" cx="1.5" cy="1.5" r="1.5" transform="translate(42.125 27.466)" fill="#1f365c" stroke="#eef1f4" stroke-width="0.5"/>
    <ellipse id="Ellipse_96" data-name="Ellipse 96" cx="1.5" cy="2" rx="1.5" ry="2" transform="translate(45.125 30.466)" fill="#1f365c" stroke="#eef1f4" stroke-width="0.5"/>
  </g>
</svg>
