<svg xmlns="http://www.w3.org/2000/svg" width="84.567" height="84.805" viewBox="0 0 84.567 84.805">
  <g id="Contact_Benefits_icon2" transform="translate(0.05 0.288)">
    <g id="Group_2512" data-name="Group 2512" transform="translate(15.871 0.001)">
      <g id="Group_2511" data-name="Group 2511">
        <path id="Path_458" data-name="Path 458" d="M163.563,41H143.642V38.182h5.375a1.237,1.237,0,1,0,0-2.475h-5.375V32.892h3.732a5.17,5.17,0,0,0,3.68-1.524l8.137-8.137a3.88,3.88,0,1,0-1.75-1.75L149.3,29.618a2.712,2.712,0,0,1-1.931.8h-3.732v-2.73a6.534,6.534,0,0,0-6.527-6.527h-2.73V10.207a3.882,3.882,0,1,0-2.475,0V21.16h-2.815V15.785a1.237,1.237,0,0,0-2.475,0V21.16H123.8V1.238a1.237,1.237,0,0,0-2.475,0V21.16h-2.815V15.785a1.237,1.237,0,1,0-2.475,0V21.16h-2.815V17.429a5.17,5.17,0,0,0-1.525-3.68l-8.14-8.14a3.884,3.884,0,1,0-1.75,1.75l8.14,8.14a2.712,2.712,0,0,1,.8,1.93V21.16h-2.73a6.555,6.555,0,0,0-1.631.206,1.237,1.237,0,0,0,.617,2.4,4.075,4.075,0,0,1,1.014-.128h29.094a4.057,4.057,0,0,1,4.052,4.052V56.781a4.077,4.077,0,0,1-.127,1.013,1.237,1.237,0,1,0,2.4.616,6.548,6.548,0,0,0,.205-1.63v-2.73h10.953a3.882,3.882,0,1,0,0-2.475H143.641V48.761h5.375a1.237,1.237,0,0,0,0-2.475h-5.375V43.472h19.922a1.237,1.237,0,0,0,0-2.475Zm-3.64-22.24a1.408,1.408,0,1,1-.412,1A1.4,1.4,0,0,1,159.923,18.757ZM101.081,4.879a1.407,1.407,0,1,1,0-1.991A1.41,1.41,0,0,1,101.081,4.879Zm32.066,3.057a1.408,1.408,0,1,1,1.408-1.408A1.409,1.409,0,0,1,133.147,7.936Zm25.127,43.471a1.408,1.408,0,1,1-1.408,1.408A1.409,1.409,0,0,1,158.274,51.406Z" transform="translate(-96.206 -0.001)" fill="#1f365c" stroke="#1f365c" stroke-width="0.1"/>
      </g>
    </g>
    <g id="Group_2514" data-name="Group 2514" transform="translate(0 25.127)">
      <g id="Group_2513" data-name="Group 2513">
        <path id="Path_459" data-name="Path 459" d="M67.46,205.019a3.886,3.886,0,0,0-4.47-.73l-8.14-8.14a2.712,2.712,0,0,1-.8-1.93v-3.732h2.73a6.551,6.551,0,0,0,1.631-.206,1.237,1.237,0,1,0-.617-2.4,4.073,4.073,0,0,1-1.014.128H27.686a4.057,4.057,0,0,1-4.052-4.052V154.866a4.07,4.07,0,0,1,.128-1.014,1.237,1.237,0,0,0-2.4-.617,6.541,6.541,0,0,0-.206,1.631v2.73H10.206a3.882,3.882,0,1,0,0,2.475H21.159v2.815H15.784a1.237,1.237,0,0,0,0,2.475h5.375v2.815H1.237a1.237,1.237,0,1,0,0,2.475H21.159v2.815H15.784a1.237,1.237,0,0,0,0,2.475h5.375v2.815H17.427a5.17,5.17,0,0,0-3.68,1.524L5.61,188.417a3.879,3.879,0,1,0,1.75,1.75l8.137-8.137a2.712,2.712,0,0,1,1.931-.8H21.16v2.73a6.534,6.534,0,0,0,6.527,6.527h2.73V201.44a3.882,3.882,0,1,0,2.475,0V190.487h2.815v5.375a1.237,1.237,0,0,0,2.475,0v-5.375H41v19.922a1.237,1.237,0,0,0,2.475,0V190.487h2.815v5.375a1.237,1.237,0,0,0,2.475,0v-5.375h2.815v3.732A5.17,5.17,0,0,0,53.1,197.9l8.14,8.14a3.881,3.881,0,1,0,6.22-1.02ZM6.527,160.241a1.408,1.408,0,1,1,1.408-1.408A1.409,1.409,0,0,1,6.527,160.241ZM4.877,192.89a1.408,1.408,0,1,1,.412-1A1.4,1.4,0,0,1,4.877,192.89Zm28.184,12.229a1.408,1.408,0,1,1-1.408-1.408A1.409,1.409,0,0,1,33.061,205.119Zm32.649,3.64a1.407,1.407,0,1,1,0-1.991A1.409,1.409,0,0,1,65.71,208.76Z" transform="translate(0 -152.306)" fill="#1f365c" stroke="#1f365c" stroke-width="0.1"/>
      </g>
    </g>
    <g id="Group_2516" data-name="Group 2516" transform="translate(29.094 27.772)">
      <g id="Group_2515" data-name="Group 2515">
        <path id="Path_460" data-name="Path 460" d="M202.635,179.5a5.976,5.976,0,0,0-4.585-5.616,4.224,4.224,0,0,0,.122-1,4.769,4.769,0,0,0-4.957-4.544,5.147,5.147,0,0,0-3.719,1.545,5.147,5.147,0,0,0-3.719-1.545,4.769,4.769,0,0,0-4.957,4.544,4.223,4.223,0,0,0,.122,1,5.976,5.976,0,0,0-4.585,5.616,5.434,5.434,0,0,0,1.3,3.521,6.118,6.118,0,0,0-1.3,3.752,6.372,6.372,0,0,0,2.975,5.287v0a5.476,5.476,0,0,0,5.7,5.2,5.9,5.9,0,0,0,4.463-1.973,5.9,5.9,0,0,0,4.463,1.973,5.514,5.514,0,0,0,5.689-4.884,5.783,5.783,0,0,0,2.987-4.95,5.577,5.577,0,0,0-1.721-3.967A5.578,5.578,0,0,0,202.635,179.5Zm-4.379,5.061a3.3,3.3,0,0,1,1.9,2.873,3.165,3.165,0,0,1-1.09,2.326,5.555,5.555,0,0,0-3.253-2.62,1.237,1.237,0,1,0-.742,2.361,2.807,2.807,0,0,1,2.109,2.561,3.271,3.271,0,0,1-6.452,0v-7.935a3.013,3.013,0,0,1,3.226-2.73,1.237,1.237,0,0,0,0-2.475,6.049,6.049,0,0,0-3.226.917v-1.58a1.237,1.237,0,0,0-2.475,0v6.869a5.894,5.894,0,0,0-1.367-.633,1.237,1.237,0,0,0-.742,2.361,2.807,2.807,0,0,1,2.109,2.561v2.645a3.271,3.271,0,0,1-6.452,0,2.494,2.494,0,0,1,.77-1.766,1.237,1.237,0,0,0-1.744-1.755,5.262,5.262,0,0,0-.764.959,3.774,3.774,0,0,1-1.237-2.728,4.214,4.214,0,0,1,3.5-3.916,1.237,1.237,0,1,0-.553-2.412,7.538,7.538,0,0,0-2.27.925,2.986,2.986,0,0,1-.675-1.87,3.715,3.715,0,0,1,3.94-3.391l.033,0a1.236,1.236,0,0,0,1.05-1.888c-.009-.015-.018-.031-.028-.045l-.017-.022c-.019-.027-.039-.053-.06-.079l0,0a1.837,1.837,0,0,1-.453-1.187,2.523,2.523,0,0,1,4.964,0,1.237,1.237,0,0,0,2.475,0,2.523,2.523,0,0,1,4.964,0,1.74,1.74,0,0,1-.186.779,6.87,6.87,0,0,0-2.031.509,1.237,1.237,0,1,0,.961,2.28,4.467,4.467,0,0,1,1.71-.346h.035l.033,0a3.714,3.714,0,0,1,3.939,3.391,3.3,3.3,0,0,1-1.9,2.873,1.237,1.237,0,0,0,0,2.189Z" transform="translate(-176.357 -168.34)" fill="#1f365c" stroke="#1f365c" stroke-width="0.1"/>
      </g>
    </g>
  </g>
</svg>
