<svg xmlns="http://www.w3.org/2000/svg" width="37.5" height="25" viewBox="0 0 37.5 25">
  <g id="CreditCardIcon" transform="translate(0 -85.333)">
    <g id="Group_1055" data-name="Group 1055" transform="translate(0 85.333)">
      <g id="Group_1054" data-name="Group 1054">
        <path id="Path_202" data-name="Path 202" d="M33.594,85.333H3.906A3.912,3.912,0,0,0,0,89.239v17.187a3.912,3.912,0,0,0,3.906,3.906H33.594a3.912,3.912,0,0,0,3.906-3.906V89.239A3.912,3.912,0,0,0,33.594,85.333Zm2.344,21.094a2.347,2.347,0,0,1-2.344,2.344H3.906a2.347,2.347,0,0,1-2.344-2.344V89.239A2.347,2.347,0,0,1,3.906,86.9H33.594a2.347,2.347,0,0,1,2.344,2.344v17.187Z" transform="translate(0 -85.333)"/>
      </g>
    </g>
    <g id="Group_1057" data-name="Group 1057" transform="translate(0 90.02)">
      <g id="Group_1056" data-name="Group 1056" transform="translate(0 0)">
        <path id="Path_203" data-name="Path 203" d="M36.719,149.333H.781a.782.782,0,0,0-.781.781V154.8a.782.782,0,0,0,.781.781H36.719a.782.782,0,0,0,.781-.781v-4.687A.782.782,0,0,0,36.719,149.333Zm-.781,4.688H1.562V150.9H35.937v3.125Z" transform="translate(0 -149.333)"/>
      </g>
    </g>
    <g id="Group_1059" data-name="Group 1059" transform="translate(4.687 100.958)">
      <g id="Group_1058" data-name="Group 1058" transform="translate(0 0)">
        <path id="Path_204" data-name="Path 204" d="M74.156,298.667H64.781a.781.781,0,1,0,0,1.563h9.375a.781.781,0,1,0,0-1.562Z" transform="translate(-64 -298.667)"/>
      </g>
    </g>
    <g id="Group_1061" data-name="Group 1061" transform="translate(4.687 104.083)">
      <g id="Group_1060" data-name="Group 1060">
        <path id="Path_205" data-name="Path 205" d="M74.156,341.333H64.781a.781.781,0,1,0,0,1.563h9.375a.781.781,0,1,0,0-1.562Z" transform="translate(-64 -341.333)"/>
      </g>
    </g>
    <g id="Group_1063" data-name="Group 1063" transform="translate(26.562 99.395)">
      <g id="Group_1062" data-name="Group 1062" transform="translate(0 0)">
        <path id="Path_206" data-name="Path 206" d="M366.573,277.333h-1.562a2.347,2.347,0,0,0-2.344,2.344v1.562a2.347,2.347,0,0,0,2.344,2.344h1.562a2.347,2.347,0,0,0,2.344-2.344v-1.562A2.347,2.347,0,0,0,366.573,277.333Zm.781,3.906a.782.782,0,0,1-.781.781h-1.562a.782.782,0,0,1-.781-.781v-1.562a.782.782,0,0,1,.781-.781h1.562a.782.782,0,0,1,.781.781Z" transform="translate(-362.667 -277.333)"/>
      </g>
    </g>
  </g>
</svg>
