<svg xmlns="http://www.w3.org/2000/svg" xmlns:xlink="http://www.w3.org/1999/xlink" width="25" height="25" viewBox="0 0 25 25"><defs><linearGradient id="a" x1="0.5" x2="0.5" y2="1" gradientUnits="objectBoundingBox"><stop offset="0" stop-color="#f8d54c"/><stop offset="0.498" stop-color="#ff543e"/><stop offset="1" stop-color="#c832aa"/></linearGradient></defs><g transform="translate(-1336 -6220)"><rect width="25" height="25" rx="4" transform="translate(1336 6220)" fill="url(#a)"/><path d="M12.39,3.139C8.6,3.139,5,2.8,3.623,6.331c-.568,1.458-.486,3.351-.486,6.061,0,2.379-.076,4.614.486,6.06,1.372,3.531,5,3.193,8.765,3.193,3.631,0,7.374.378,8.766-3.193.569-1.472.486-3.337.486-6.06,0-3.615.2-5.949-1.554-7.7-1.775-1.775-4.176-1.553-7.7-1.553Zm-.829,1.668c7.909-.013,8.915-.892,8.36,11.322-.2,4.32-3.487,3.846-7.53,3.846-7.372,0-7.584-.211-7.584-7.586,0-7.461.585-7.578,6.754-7.584Zm5.768,1.536a1.11,1.11,0,1,0,1.11,1.11A1.11,1.11,0,0,0,17.329,6.343Zm-4.939,1.3a4.752,4.752,0,1,0,4.75,4.752,4.752,4.752,0,0,0-4.75-4.752Zm0,1.668c4.078,0,4.083,6.169,0,6.169S8.307,9.308,12.39,9.308Z" transform="translate(1336.212 6220.179)" fill="#fff"/></g></svg>