<svg xmlns="http://www.w3.org/2000/svg" width="25" height="25" viewBox="0 0 25 25"><g transform="translate(-1300 -6220)"><rect width="25" height="25" rx="4" transform="translate(1300 6220)" fill="#069"/><g transform="translate(1304 6224.304)"><path d="M19.217,18.94h0v-6.09c0-2.979-.641-5.275-4.125-5.275a3.616,3.616,0,0,0-3.257,1.79h-.048V7.852h-3.3V18.939h3.439v-5.49c0-1.445.274-2.843,2.064-2.843,1.764,0,1.79,1.65,1.79,2.936v5.4Z" transform="translate(-2.615 -2.333)" fill="#fff"/><path d="M.4,7.977H3.839V19.064H.4Z" transform="translate(-0.122 -2.457)" fill="#fff"/><path d="M1.994,0A2,2,0,1,0,3.988,1.994,1.995,1.995,0,0,0,1.994,0Z" fill="#fff"/></g></g></svg>