<svg xmlns="http://www.w3.org/2000/svg" width="36.642" height="37.39" viewBox="0 0 36.642 37.39"><defs><style>.a{fill:#4285f4;}.b{fill:#34a853;}.c{fill:#fbbc05;}.d{fill:#eb4335;}</style></defs><path class="a" d="M148.5,110.583a16.021,16.021,0,0,0-.395-3.822H130.55V113.7h10.3a9.136,9.136,0,0,1-3.822,6.065L137,120l5.55,4.3.385.038a18.279,18.279,0,0,0,5.567-13.751" transform="translate(-111.855 -91.473)"/><path class="b" d="M30.626,171.367a17.819,17.819,0,0,0,12.38-4.528l-5.9-4.57a11.065,11.065,0,0,1-6.481,1.87A11.255,11.255,0,0,1,19.99,156.37l-.219.019L14,160.855l-.075.21a18.681,18.681,0,0,0,16.7,10.3" transform="translate(-11.931 -133.978)"/><path class="c" d="M8.06,83.492a11.509,11.509,0,0,1-.623-3.7,12.094,12.094,0,0,1,.6-3.7l-.01-.248L2.185,71.312l-.191.091a18.656,18.656,0,0,0,0,16.784L8.06,83.492" transform="translate(0 -61.1)"/><path class="d" d="M30.626,7.229a10.361,10.361,0,0,1,7.229,2.784l5.276-5.152A17.962,17.962,0,0,0,30.626,0a18.681,18.681,0,0,0-16.7,10.3L19.97,15A11.3,11.3,0,0,1,30.626,7.229" transform="translate(-11.931 0)"/></svg>