<svg xmlns="http://www.w3.org/2000/svg" width="37.39" height="37.39" viewBox="0 0 37.39 37.39"><defs><style>.a{fill:#069;}</style></defs><path class="a" d="M34.694,0H2.7A2.7,2.7,0,0,0,0,2.7v32a2.7,2.7,0,0,0,2.7,2.7h32a2.7,2.7,0,0,0,2.7-2.7V2.7a2.7,2.7,0,0,0-2.7-2.7ZM13.263,28.262H8.71v-13.7h4.553ZM10.986,12.693h-.03a2.373,2.373,0,1,1,.06-4.733,2.374,2.374,0,1,1-.03,4.733ZM29.68,28.262H25.128V20.933c0-1.842-.659-3.1-2.307-3.1A2.492,2.492,0,0,0,20.485,19.5a3.118,3.118,0,0,0-.15,1.111v7.65H15.782s.06-12.413,0-13.7h4.553V16.5a4.52,4.52,0,0,1,4.1-2.261c3,0,5.242,1.958,5.242,6.165Zm0,0" transform="translate(0)"/></svg>