<svg xmlns="http://www.w3.org/2000/svg" width="57.826" height="62.556" viewBox="0 0 57.826 62.556"><defs><style>.a,.b,.c{fill:#fff;}.a,.c{stroke:#fff;}.a{stroke-width:0.3px;}.c{stroke-width:0.5px;}</style></defs><g transform="translate(-31.8 0.15)"><path class="a" d="M137.661,33.224a16.612,16.612,0,1,0-16.612-16.612A16.631,16.631,0,0,0,137.661,33.224Zm0-31.4a14.786,14.786,0,1,1-14.786,14.786A14.8,14.8,0,0,1,137.661,1.826Z" transform="translate(-76.735 0.039)"/><path class="b" d="M229.325,88.936a2.578,2.578,0,0,1-2.5-1.517,1.2,1.2,0,0,0-2.331.592h0l.006.023a1.187,1.187,0,0,0,.055.166,4.8,4.8,0,0,0,3.736,3.023v1.6a1.2,1.2,0,1,0,2.4,0V91.258A4.6,4.6,0,0,0,233.1,90.1a4.759,4.759,0,0,0,1.435-3.42c0-1.217-.477-4.1-4.9-4.589a2.634,2.634,0,0,1-1.858-.829,1.677,1.677,0,0,1-.349-1.014,1.971,1.971,0,0,1,2.064-2.064,2.135,2.135,0,0,1,1.948,1.019,1.2,1.2,0,1,0,2.187-1h0a4.412,4.412,0,0,0-2.934-2.284V74.31a1.2,1.2,0,0,0-2.4,0v1.607a4.381,4.381,0,0,0-3.266,4.332c0,1.73,1.138,3.876,4.346,4.23,2.761.3,2.761,1.732,2.761,2.2a2.364,2.364,0,0,1-.679,1.67A2.752,2.752,0,0,1,229.325,88.936Z" transform="translate(-168.787 -66.694)"/><path class="a" d="M73.983,345.915a.913.913,0,0,0-1.33,0l-6.2,6.594a.913.913,0,0,0,.665,1.539h1.793v7.823a.913.913,0,0,0,1.826,0v-8.736a.913.913,0,0,0-.913-.913h-.593l4.09-4.349,4.09,4.349h-.593a.913.913,0,0,0-.913.913v10.883H70.734v-3a.913.913,0,0,0-1.826,0v3.914a.913.913,0,0,0,.913.913h6.994a.913.913,0,0,0,.913-.913V354.049h1.793a.913.913,0,0,0,.665-1.539Z" transform="translate(-28.553 -303.589)"/><path class="a" d="M206.975,294.216a.913.913,0,0,0-1.33,0l-6.2,6.595a.913.913,0,0,0,.665,1.539H201.9v17.165a.913.913,0,0,0,.913.913h6.994a.913.913,0,0,0,.913-.913V302.349h1.793a.913.913,0,0,0,.665-1.539Zm2.832,6.307a.913.913,0,0,0-.913.913V318.6h-5.168V301.436a.913.913,0,0,0-.913-.913h-.594l4.09-4.349,4.09,4.349h-.593Z" transform="translate(-145.383 -258.172)"/><path class="a" d="M339.966,246.382a.913.913,0,0,0-1.33,0l-6.2,6.594a.913.913,0,0,0,.665,1.539h1.793v11.523a.913.913,0,1,0,1.826,0V253.6a.913.913,0,0,0-.913-.913h-.593l4.09-4.349,4.09,4.349H342.8a.913.913,0,0,0-.913.913V276.58h-5.168V263.74a.913.913,0,1,0-1.826,0v13.753a.913.913,0,0,0,.913.913H342.8a.913.913,0,0,0,.913-.913V254.515H345.5a.913.913,0,0,0,.665-1.539Z" transform="translate(-262.214 -216.15)"/><path class="c" d="M41.536,132.877a1,1,0,0,0-1-1H34.7a1,1,0,0,0,0,1.993h5.843A1,1,0,0,0,41.536,132.877Z" transform="translate(-36.637 -93.339) rotate(-16)"/><path class="c" d="M77.271,197.919l-2.078.814a1,1,0,1,0,.727,1.855L78,199.774a1,1,0,1,0-.727-1.855Z" transform="translate(-86.48 -138.576) rotate(-16)"/><path class="c" d="M75.193,61.69l2.078.814A1,1,0,1,0,78,60.649l-2.078-.814a1,1,0,1,0-.727,1.855Z" transform="translate(-53.465 -23.439) rotate(-16)"/><path class="c" d="M426.034,131.881h-5.843a1,1,0,1,0,0,1.993h5.843a1,1,0,0,0,0-1.993Z" transform="translate(-358.072 -1.169) rotate(-16)"/><path class="c" d="M407.364,199.776l2.078.814a1,1,0,0,0,.727-1.855l-2.078-.814a1,1,0,0,0-.727,1.855Z" transform="translate(-363.453 -59.157) rotate(-16)"/><path class="c" d="M407.728,62.573a.993.993,0,0,0,.363-.069l2.078-.814a1,1,0,0,0-.727-1.855l-2.078.814a1,1,0,0,0,.364,1.924Z" transform="translate(-330.437 55.982) rotate(-16)"/></g></svg>