<svg xmlns="http://www.w3.org/2000/svg" width="62.276" height="62.299" viewBox="0 0 62.276 62.299"><defs><style>.a{fill:#fff;stroke:#1f365c;stroke-width:0.3px;fill-rule:evenodd;}</style></defs><g transform="translate(0.15 0.15)"><path class="a" d="M47.883,39.922v6.06c-.213.355-.17.241-.653.355l-2.739.681c-1.291.383-.993,1.32-2.711,3.832-1.362,2-.057,2.129.412,5.194l-5.521,3.122a21.441,21.441,0,0,1-2.157-2.228c-1.135-1.235-1.618-.61-3.534-.6s-2.4-.667-3.548.568A24.8,24.8,0,0,1,25.3,59.152a51.3,51.3,0,0,1-5.521-3.222c.568-2.838,1.717-3.349.468-5.01a14.2,14.2,0,0,1-.908-1.362c-.965-1.6-.553-2.157-1.859-2.54l-2.626-.667c-.468-.1-.568-.014-.766-.369v-6.06c.341-.5,2.682-.795,3.406-1.008,1.362-.412.979-1.519,2.682-3.86,1.405-1.93,0-2.257-.383-5.18,1.433-.653,4.541-2.739,5.506-3.122a23.129,23.129,0,0,1,2.129,2.242c1.135,1.249,1.66.568,3.548.6,1.916.028,2.413.639,3.548-.6a21.668,21.668,0,0,1,2.129-2.242l5.506,3.136c-.1.993-.738,2.37-.937,3.406-.284,1.334,1.121,2.129,2.058,4.414.27.681.383.951,1.093,1.178C45.116,39.127,47.529,39.4,47.883,39.922Zm-17.711-2.8a5.89,5.89,0,1,1-5.024,6.741A5.838,5.838,0,0,1,30.172,37.126Zm-7.465,7.082a8.374,8.374,0,1,0,7.039-9.537A8.369,8.369,0,0,0,22.707,44.208ZM31,21.983a2.879,2.879,0,0,1-.88-.582,11.191,11.191,0,0,0-12.986-.483,8.522,8.522,0,0,1-1.49,1.036c-.213.014-1.9-1.277-2.6-1.618a11.77,11.77,0,0,0-3.193-1.093c-3.917-.724-6.33.993-7.351,1.036.071-1.192,3.307-5.592,3.917-6.315A32.725,32.725,0,0,1,17.953,5.223a30.062,30.062,0,0,1,7.735-2.313A45.588,45.588,0,0,1,31,2.455a38.644,38.644,0,0,1,5.336.468A31.5,31.5,0,0,1,50.41,9.04a28.447,28.447,0,0,1,2.767,2.4,17.689,17.689,0,0,1,1.235,1.291c1.206,1.4,4.91,5.833,5.052,7.55-.582-.043-2.271-.823-3.293-1.008a10.411,10.411,0,0,0-4.031,0c-3.207.624-3.9,1.76-5.748,2.739-.823-.355-5.208-4.967-12.063-2.044A37.529,37.529,0,0,0,31,21.983ZM0,19.9a2.612,2.612,0,0,0,2.9,2.9c.937,0,4.712-2.611,9.367-.028,1.433.795,1.774,1.8,3.363,1.8,1.66,0,3.69-2.9,6.8-2.9,2.044,0,2.881-.085,4.783.88,1.291.639,2.044,1.5,2.526,1.632v3.023c-.738-.014-1.135-.681-1.987-1.547-2.767-2.739-1.093-2.37-8.9,1.888-2.37,1.291-2.015,1.263-1.306,3.789a20,20,0,0,1,.6,2.171c0,.27-.213.383-.511.866-1.377,2.271-.809,2.129-2,2.413-.781.184-1.49.369-2.327.568s-1.7.326-1.7,1.32v8.558c0,1.4,2.611,1.519,4.343,1.958.639.17.326-.184.979,1.15,1.135,2.3,1.448,1.433,1.022,2.867-.582,1.873-1.476,3.662-.383,4.442.284.2.781.426,1.121.624.752.454,1.4.809,2.157,1.249.511.3,4.144,2.455,4.357,2.455,1.5,0,1.391-.582,2.81-1.987,1.306-1.32.653-1.164,3.108-1.164,2.2,0,1.263-.468,2.867,1.164,2.129,2.143,1.646,2.81,4.925.823.738-.44,1.419-.809,2.157-1.235,4.485-2.583,4.243-1.987,3.392-4.9-.866-2.952-.852-1.7.426-4,.951-1.689-.085-1.15,3.818-2.115.823-.2,1.689-.369,1.689-1.334V38.8c0-1.419-1.845-1.49-3.832-1.973-1.547-.369-.724-.085-2.115-2.285-.837-1.348-.781-.483-.071-3.023.4-1.405,1.079-2.484.028-3.236l-5.506-3.179c-3.278-1.817-2.427-1.7-5.478,1.377-.412.412-.468.71-1.164.724V24.055c.951-.255,5.294-4.513,10.7-1.377,1.419.823,1.944,1.888,3.534,1.888,1.873,0,4.967-4.74,10.985-2.285a3.382,3.382,0,0,0,1.987.511,2.611,2.611,0,0,0,2.526-2.9c0-1.036-1.944-4.059-2.625-5.052l-2.015-2.64a33.165,33.165,0,0,0-6.429-5.932c-.341-.227-.568-.4-.88-.624L48.153,4.5A33.8,33.8,0,0,0,32.5,0c-5.294,0-8.26.184-13.34,2.029-.7.255-1.49.553-2.157.866-.724.355-1.448.61-2.129,1.022L12.021,5.592a37.2,37.2,0,0,0-7.394,6.6C3.52,13.426,0,18.449,0,19.9Z"/></g></svg>