<svg xmlns="http://www.w3.org/2000/svg" width="61.998" height="61.998" viewBox="0 0 61.998 61.998"><defs><style>.a{fill:#fff;}</style></defs><g transform="translate(-0.002 0)"><path class="a" d="M44.433,62H3.1A3.118,3.118,0,0,1,0,58.9V3.1A3.118,3.118,0,0,1,3.1,0H39.267A1.06,1.06,0,0,1,40,.3l7.233,7.233a1.068,1.068,0,0,1,.3.734v9.651l13.836,5.931A1.032,1.032,0,0,1,62,24.8V34.834a21.762,21.762,0,0,1-9.083,17.659l-5.383,3.834V58.9A3.118,3.118,0,0,1,44.433,62ZM3.1,2.067A1.034,1.034,0,0,0,2.068,3.1V58.9A1.034,1.034,0,0,0,3.1,59.933H44.433A1.034,1.034,0,0,0,45.466,58.9V56.326l-5.383-3.834c-.346-.257-.708-.535-1.075-.826H6.2V49.6H36.818a20.325,20.325,0,0,1-1.695-2.067H6.2V45.466H33.8A22.451,22.451,0,0,1,32.778,43.4H6.2V41.333H32c-.2-.668-.377-1.345-.537-2.067H6.2V37.2H31.135A22.44,22.44,0,0,1,31,34.834V30.462l-.036-.036V27.513l.036.036V24.8a1.032,1.032,0,0,1,.63-.951l5.156-2.21-.027-.027,2.067-.857.005.005.515-.221L41,19.854,41,19.833l4.47-1.915V9.3h-6.2a1.034,1.034,0,0,1-1.033-1.033v-6.2ZM46.5,19.726,33.067,25.483v9.351a19.7,19.7,0,0,0,8.225,15.975l5.208,3.72,5.207-3.72a19.7,19.7,0,0,0,8.225-15.975V25.483L46.5,19.726Zm-6.2-16.2v3.71h3.71Z" transform="translate(0.001 -0.001)"/><path class="a" d="M46.983,24.073,36.65,28.207a1.033,1.033,0,0,0-.65.96v6.52A17.477,17.477,0,0,0,42.592,49.4L46.72,52.71a1.033,1.033,0,0,0,1.292,0L52.14,49.4a17.477,17.477,0,0,0,6.592-13.717v-6.52a1.033,1.033,0,0,0-.65-.96L47.75,24.073A1.033,1.033,0,0,0,46.983,24.073Zm9.683,5.793v5.821a15.419,15.419,0,0,1-5.817,12.1l-3.482,2.788-3.482-2.79a15.419,15.419,0,0,1-5.817-12.1V29.866l9.3-3.72Z" transform="translate(-0.867 -1.267)"/><path class="a" d="M42.754,37.458l-1.461,1.461,3.1,3.1a1.033,1.033,0,0,0,.731.3h.034a1.033,1.033,0,0,0,.744-.352L53.135,33.7l-1.556-1.36-6.51,7.44Z" transform="translate(-0.691 -0.989)"/></g></svg>