<svg xmlns="http://www.w3.org/2000/svg" width="63.503" height="63.623" viewBox="0 0 63.503 63.623"><defs><style>.a{fill:#fff;stroke:#1f365c;stroke-width:0.65px;}</style></defs><path class="a" d="M56.474,61.2A1.772,1.772,0,0,1,54.7,62.972H2.078a1.773,1.773,0,0,1,0-3.545H8.949V13.5a1.773,1.773,0,0,1,3.545,0v45.93H24.436V28.994a1.773,1.773,0,1,1,3.545,0V59.427H39.924V41.391a1.773,1.773,0,1,1,3.545,0V59.427H54.7A1.772,1.772,0,0,1,56.474,61.2Zm4.911-28.3a1.772,1.772,0,0,0-1.773,1.773v4.84l-39-39A1.764,1.764,0,0,0,19.327,0H2.078a1.773,1.773,0,0,0,0,3.545H18.63L57.106,42.021h-4.84a1.773,1.773,0,1,0,0,3.545h9.119a1.769,1.769,0,0,0,1.409-.7,1.767,1.767,0,0,0,.363-1.075h0V34.674A1.772,1.772,0,0,0,61.385,32.9Z" transform="translate(0.02 0.325)"/></svg>