<svg xmlns="http://www.w3.org/2000/svg" width="60" height="60" viewBox="0 0 60 60"><path d="M45.707.293A1,1,0,0,0,45,0H25a5.006,5.006,0,0,0-5,5v6a1,1,0,0,0,2,0V5a3,3,0,0,1,3-3H44v9a5.006,5.006,0,0,0,5,5h9V50a3,3,0,0,1-3,3H52V29a5.006,5.006,0,0,0-5-5H27a3,3,0,0,1-3-3V19a5.006,5.006,0,0,0-5-5H5a5.006,5.006,0,0,0-5,5V55a5.006,5.006,0,0,0,5,5H47a5.006,5.006,0,0,0,5-5h3a5.006,5.006,0,0,0,5-5V15a1,1,0,0,0-.293-.707ZM50,55a3,3,0,0,1-3,3H5a3,3,0,0,1-3-3V19a3,3,0,0,1,3-3H19a3,3,0,0,1,3,3v2a5.006,5.006,0,0,0,5,5H47a3,3,0,0,1,3,3ZM46,11V3.414L56.586,14H49A3,3,0,0,1,46,11Z" fill="#1f365c"/><path d="M27,14h2a1,1,0,0,0,0-2H27a1,1,0,0,0,0,2Z" fill="#1f365c"/><path d="M34,14h7a1,1,0,0,0,0-2H34a1,1,0,0,0,0,2Z" fill="#1f365c"/><path d="M27,18h2a1,1,0,0,0,0-2H27a1,1,0,0,0,0,2Z" fill="#1f365c"/><path d="M34,18h7a1,1,0,0,0,0-2H34a1,1,0,0,0,0,2Z" fill="#1f365c"/><path d="M27,22h2a1,1,0,0,0,0-2H27a1,1,0,0,0,0,2Z" fill="#1f365c"/><path d="M34,22h7a1,1,0,0,0,0-2H34a1,1,0,0,0,0,2Z" fill="#1f365c"/><path d="M5,18a1,1,0,0,0-1,1v2a1,1,0,0,0,2,0V19A1,1,0,0,0,5,18Z" fill="#1f365c"/><path d="M5,25a1,1,0,0,0-1,1V40a1,1,0,0,0,2,0V26A1,1,0,0,0,5,25Z" fill="#1f365c"/><path d="M36,38.586V32a2,2,0,0,0-2-2H32a2,2,0,0,0-2,2v.586l-2.944-2.944a1.5,1.5,0,0,0-2.113,0l-11.8,11.8A1.5,1.5,0,0,0,14.21,44H16v9.5A1.5,1.5,0,0,0,17.5,55h17A1.5,1.5,0,0,0,36,53.5V44h1.79a1.5,1.5,0,0,0,1.067-2.557ZM24,53V47a1,1,0,0,1,1-1h2a1,1,0,0,1,1,1v6ZM35.5,42A1.5,1.5,0,0,0,34,43.5V53H30V47a3,3,0,0,0-3-3H25a3,3,0,0,0-3,3v6H18V43.5A1.5,1.5,0,0,0,16.5,42H15.415L26,31.414l4.293,4.293A1,1,0,0,0,32,35V32h2v7a1,1,0,0,0,.293.707L36.585,42Z" fill="#1f365c"/></svg>