<svg xmlns="http://www.w3.org/2000/svg" width="64.857" height="64.857" viewBox="0 0 64.857 64.857"><g transform="translate(1 0.958)"><path d="M56.122,6.735H49.388V2.245a2.245,2.245,0,1,0-4.49,0v4.49H17.959V2.245a2.245,2.245,0,1,0-4.49,0v4.49H6.735A6.735,6.735,0,0,0,0,13.469V56.122a6.735,6.735,0,0,0,6.735,6.735H56.122a6.735,6.735,0,0,0,6.735-6.735V13.469A6.735,6.735,0,0,0,56.122,6.735Zm2.245,49.388a2.245,2.245,0,0,1-2.245,2.245H6.735A2.245,2.245,0,0,1,4.49,56.122V26.939H58.367Zm0-33.673H4.49v-8.98a2.245,2.245,0,0,1,2.245-2.245h6.735v4.49a2.245,2.245,0,1,0,4.49,0v-4.49H44.9v4.49a2.245,2.245,0,1,0,4.49,0v-4.49h6.735a2.245,2.245,0,0,1,2.245,2.245v8.98Z" transform="translate(0 0.042)" fill="#1f365c" stroke="#fff" stroke-width="2"/><g transform="translate(15.742 31.456)"><path d="M150.364,239.773a2.245,2.245,0,0,0-3.119,0l-16.372,16.372-7.392-7.392a2.245,2.245,0,0,0-3.174,3.174l8.98,8.98a2.245,2.245,0,0,0,3.174,0l17.959-17.959A2.245,2.245,0,0,0,150.364,239.773Z" transform="translate(-119.676 -239.143)" fill="#1f365c" stroke="#fff" stroke-width="2"/></g></g></svg>