<svg xmlns="http://www.w3.org/2000/svg" width="62.117" height="62.117" viewBox="0 0 62.117 62.117"><path d="M31.058,62.117A31.058,31.058,0,1,1,62.117,31.058,31.093,31.093,0,0,1,31.058,62.117Zm0-59.528a28.47,28.47,0,1,0,28.47,28.47A28.5,28.5,0,0,0,31.058,2.588Z" fill="#1f365c"/><path d="M31.058,32.352H1.294a1.294,1.294,0,0,1,0-2.588h28.47V1.294a1.294,1.294,0,0,1,2.588,0V31.058A1.3,1.3,0,0,1,31.058,32.352Z" fill="#1f365c"/><path d="M25.736,40.9a1.3,1.3,0,0,1-1.167-.73L11.628,13.358a1.294,1.294,0,0,1,2.329-1.128L26.9,39.038a1.294,1.294,0,0,1-.6,1.729A1.228,1.228,0,0,1,25.736,40.9Z" transform="translate(18.263 18.265)" fill="#1f365c"/></svg>