<svg xmlns="http://www.w3.org/2000/svg" width="60" height="60" viewBox="0 0 60 60"><g transform="translate(-1 -1)"><path d="M58.365,3.9,55.589,2.238A8.688,8.688,0,0,0,51.12,1H42.613a1.937,1.937,0,0,0-1.935,1.935,3.831,3.831,0,0,0,.538,1.935H36.806a2.907,2.907,0,0,0-2.9,2.9,2.871,2.871,0,0,0,.178.968H31a2.907,2.907,0,0,0-2.9,2.9v3.311a9.521,9.521,0,0,0,.132,18.271l3.947,1.127a3.717,3.717,0,0,1-1.021,7.291h-.31a3.721,3.721,0,0,1-3.716-3.716v-.155a2.9,2.9,0,0,0-5.806,0v.155A9.492,9.492,0,0,0,23.2,43.581H20.785a3.831,3.831,0,0,0,.538-1.935,1.937,1.937,0,0,0-1.935-1.935H10.88a8.694,8.694,0,0,0-4.47,1.238L3.635,42.613H1V58.1H3.635l2.775,1.665A8.688,8.688,0,0,0,10.88,61H23.258a2.894,2.894,0,0,0,2.69-3.983,2.855,2.855,0,0,0,1.97-3.759H31a2.907,2.907,0,0,0,2.9-2.9V47.044a9.521,9.521,0,0,0-.132-18.271l-3.947-1.127a3.717,3.717,0,0,1,1.021-7.291h.309a3.72,3.72,0,0,1,3.716,3.716v.155a2.9,2.9,0,1,0,5.806,0v-.155A9.352,9.352,0,0,0,40.5,22.29H51.118a8.694,8.694,0,0,0,4.47-1.238l2.776-1.665H61V3.9Zm-32.2,50.323a.969.969,0,0,1-.968.968H13.581v1.935h9.677a.968.968,0,1,1,0,1.935H10.88A6.756,6.756,0,0,1,7.406,58.1L4.171,56.161H2.935V44.548H4.171l3.235-1.941a6.756,6.756,0,0,1,3.473-.962h8.507a1.937,1.937,0,0,1-1.935,1.935H13.18l-1.486,1.486a4.807,4.807,0,0,1-3.421,1.417H6.806v1.935H8.273a6.732,6.732,0,0,0,4.79-1.984l.919-.919H25.12A9.459,9.459,0,0,0,28.1,47.044v.407H13.581v1.935H28.1v.968a2.871,2.871,0,0,0,.178.968H13.581v1.935H25.194A.969.969,0,0,1,26.161,54.226Zm12.581-30a.968.968,0,0,1-1.935,0v-.155a5.658,5.658,0,0,0-5.652-5.652h-.31a5.652,5.652,0,0,0-1.553,11.086l3.947,1.127a7.587,7.587,0,0,1-.505,14.715l-.766.163v4.844a.968.968,0,0,1-1.935,0V45.511l-.766-.163a7.624,7.624,0,0,1-6.008-7.42v-.155a.968.968,0,1,1,1.935,0v.155a5.658,5.658,0,0,0,5.652,5.652h.309a5.652,5.652,0,0,0,1.553-11.086L28.76,31.367a7.587,7.587,0,0,1,.506-14.715l.766-.163V11.645a.968.968,0,0,1,1.935,0v4.844l.766.163a7.624,7.624,0,0,1,6.008,7.42Zm20.323-6.774H57.829l-3.235,1.941a6.756,6.756,0,0,1-3.473.962H39.913A9.667,9.667,0,0,0,38.8,18.419h9.618V16.484H36.88A9.459,9.459,0,0,0,33.9,14.956v-.407H48.419V12.613H33.9v-.968a2.871,2.871,0,0,0-.178-.968H48.419V8.742H36.806a.968.968,0,0,1,0-1.935H48.019l.919.919a6.73,6.73,0,0,0,4.79,1.984h1.465V7.774H53.727a4.811,4.811,0,0,1-3.422-1.417L48.82,4.871H44.548a1.937,1.937,0,0,1-1.935-1.935H51.12a6.756,6.756,0,0,1,3.473.962l3.235,1.941h1.236Z" fill="#1f365c"/><path d="M44,38h9.677v1.935H44Z" transform="translate(-1.387 -1.194)" fill="#1f365c"/><path d="M10,24h9.677v1.935H10Z" transform="translate(-0.29 -0.742)" fill="#1f365c"/><path d="M0,0H9.677V1.935H0Z" transform="translate(10.598 29.631) rotate(-22.514)" fill="#1f365c"/><path d="M0,0H1.935V9.677H0Z" transform="translate(10.598 18.826) rotate(-67.486)" fill="#1f365c"/><path d="M0,0H9.677V1.935H0Z" transform="translate(41.741 34.286) rotate(-22.514)" fill="#1f365c"/><path d="M0,0H1.935V9.677H0Z" transform="translate(41.745 41.265) rotate(-67.486)" fill="#1f365c"/></g></svg>