<svg xmlns="http://www.w3.org/2000/svg" width="62.239" height="62.24" viewBox="0 0 62.239 62.24"><path d="M8326.91,72.039a.908.908,0,1,1,0-1.817h.907V45.988h-.907a.909.909,0,1,1,0-1.819h14.828V41.462l-.617.208a.91.91,0,0,1-.581-1.724l3.756-1.265V32.358h-.907a.908.908,0,1,1,0-1.817h.943a12.2,12.2,0,0,1,2.168-6.113.91.91,0,0,1,.068-.086,12.381,12.381,0,0,1,2.211-2.373.879.879,0,0,1,.081-.074,12.2,12.2,0,0,1,2.319-1.476l.056-.027.023-.011q.428-.206.872-.38h.007a12.318,12.318,0,0,1,3.975-.823V10.909a.91.91,0,0,1,.909-.909h8.237a2.124,2.124,0,0,1,2.122,2.122v3.633a2.124,2.124,0,0,1-2.122,2.122h-7.33v1.3a12.3,12.3,0,0,1,11.78,11.366h.943a.908.908,0,1,1,0,1.817h-.909v6.324l3.757,1.265a.91.91,0,0,1-.581,1.724l-.618-.208V44.17h14.83a.909.909,0,0,1,0,1.819h-.909V70.223h.909a.908.908,0,1,1,0,1.817Zm55.676-10.326v8.509h1.819V55.912h-11.842V70.223h1.819V61.714a4.1,4.1,0,1,1,8.2,0Zm-6.387,8.509h4.57V66.587h-4.57Zm-9.277,0h3.825V50.592h-3.825Zm-6.436,0h4.619V50.592h-.741a.908.908,0,1,1,0-1.817h8.443a.91.91,0,0,0,.909-.909V45.988h-33.4v1.878a.911.911,0,0,0,.91.909h19.5a.908.908,0,1,1,0,1.817h-.242Zm-5.642,0h3.825V50.592h-3.825Zm-5.909,0h4.093V50.592h-4.093Zm-5.642,0h3.825V50.592h-3.825Zm-3.636-8.509v8.509h1.819V55.912h-11.844V70.223h1.819V61.714a4.1,4.1,0,1,1,8.205,0Zm-6.387,8.509h4.57V66.587h-4.57Zm42.928-8.509V64.77h4.57V61.714a2.285,2.285,0,1,0-4.57,0Zm-42.928,0V64.77h4.57V61.714a2.285,2.285,0,1,0-4.57,0Zm39.292-7.621h11.842v-8.1h-8.869v1.878a2.73,2.73,0,0,1-2.729,2.726h-.244Zm-42.93,0h11.842v-3.5h-.244a2.729,2.729,0,0,1-2.727-2.726V45.988h-8.871Zm26.129-17.355-12.205,4.111v3.32h26.926V40.85l-12.205-4.111a3.957,3.957,0,0,0-2.516,0Zm3.095-1.722,9.068,3.055V32.358h-21.811v5.713l9.066-3.055a5.78,5.78,0,0,1,3.676,0Zm-12.7-4.475h21.729a10.479,10.479,0,0,0-10.425-9.557h-.88A10.465,10.465,0,0,0,8346.7,28h-.006A10.368,10.368,0,0,0,8346.155,30.541Zm11.773-14.483h7.33a.3.3,0,0,0,.3-.3V12.121a.3.3,0,0,0-.3-.3h-7.33Z" transform="translate(-8325.9 -9.899)" fill="#1f365c" stroke="#1f365c" stroke-width="0.2"/></svg>