<svg xmlns="http://www.w3.org/2000/svg" width="82.66" height="82.761" viewBox="0 0 82.66 82.761">
  <g id="Product_Section2_Icon4" transform="translate(0.9 1)">
    <path id="Path_440" data-name="Path 440" d="M218.107,94.214A7.107,7.107,0,1,0,211,87.107,7.115,7.115,0,0,0,218.107,94.214Zm0-9.476a2.369,2.369,0,1,1-2.369,2.369A2.372,2.372,0,0,1,218.107,84.738Z" transform="translate(-177.677 -67.366)" fill="#1f365c" stroke="#fff" stroke-width="1.8"/>
    <path id="Path_441" data-name="Path 441" d="M78.491,462a9.823,9.823,0,0,0-6.071,1.974,5.624,5.624,0,0,1-6.9,0,10.318,10.318,0,0,0-12.14,0,5.607,5.607,0,0,1-6.892,0,10.3,10.3,0,0,0-12.133,0,5.607,5.607,0,0,1-6.892,0A9.809,9.809,0,0,0,21.392,462a9.808,9.808,0,0,0-6.066,1.975,5.251,5.251,0,0,1-3.445,1.184,5.25,5.25,0,0,1-3.445-1.184A9.809,9.809,0,0,0,2.369,462a2.369,2.369,0,0,0,0,4.738,5.25,5.25,0,0,1,3.445,1.184A9.809,9.809,0,0,0,11.88,469.9a9.808,9.808,0,0,0,6.066-1.975,5.25,5.25,0,0,1,3.445-1.184,5.25,5.25,0,0,1,3.445,1.184A9.808,9.808,0,0,0,30.9,469.9a9.811,9.811,0,0,0,6.067-1.975,5.605,5.605,0,0,1,6.89,0,10.307,10.307,0,0,0,12.134,0,5.619,5.619,0,0,1,6.9,0,10.323,10.323,0,0,0,12.142,0,5.266,5.266,0,0,1,3.452-1.184,2.369,2.369,0,0,0,0-4.738Z" transform="translate(0 -389.036)" fill="#1f365c" stroke="#fff" stroke-width="1.8"/>
    <path id="Path_442" data-name="Path 442" d="M78.491,392a9.824,9.824,0,0,0-6.071,1.974,5.623,5.623,0,0,1-6.9,0,10.318,10.318,0,0,0-12.14,0,5.607,5.607,0,0,1-6.892,0,10.3,10.3,0,0,0-12.133,0,5.607,5.607,0,0,1-6.892,0A9.809,9.809,0,0,0,21.392,392a9.808,9.808,0,0,0-6.066,1.975,5.251,5.251,0,0,1-3.445,1.184,5.25,5.25,0,0,1-3.445-1.184A9.809,9.809,0,0,0,2.369,392a2.369,2.369,0,0,0,0,4.738,5.25,5.25,0,0,1,3.445,1.184A9.809,9.809,0,0,0,11.88,399.9a9.808,9.808,0,0,0,6.066-1.975,5.25,5.25,0,0,1,3.445-1.184,5.25,5.25,0,0,1,3.445,1.184A9.808,9.808,0,0,0,30.9,399.9a9.81,9.81,0,0,0,6.067-1.975,5.606,5.606,0,0,1,6.89,0,10.307,10.307,0,0,0,12.134,0,5.619,5.619,0,0,1,6.9,0,10.323,10.323,0,0,0,12.142,0,5.266,5.266,0,0,1,3.452-1.184,2.369,2.369,0,0,0,0-4.738Z" transform="translate(0 -330.091)" fill="#1f365c" stroke="#fff" stroke-width="1.8"/>
    <path id="Path_443" data-name="Path 443" d="M2.369,55.591a5.25,5.25,0,0,1,3.445,1.184A9.809,9.809,0,0,0,11.88,58.75a9.808,9.808,0,0,0,6.066-1.975,5.251,5.251,0,0,1,3.445-1.184,5.25,5.25,0,0,1,3.445,1.184A9.808,9.808,0,0,0,30.9,58.75a9.811,9.811,0,0,0,6.067-1.975,5.605,5.605,0,0,1,6.89,0,10.307,10.307,0,0,0,12.134,0,5.619,5.619,0,0,1,6.9,0,10.323,10.323,0,0,0,12.142,0,5.266,5.266,0,0,1,3.452-1.184,2.369,2.369,0,1,0,0-4.738,9.823,9.823,0,0,0-6.071,1.974,5.266,5.266,0,0,1-3.453,1.184,4.758,4.758,0,0,1-2.479-.577V26.249l4.048,3.238a2.369,2.369,0,1,0,2.96-3.7L41.91.519a2.369,2.369,0,0,0-2.96,0L31.744,6.284V2.369A2.369,2.369,0,0,0,29.375,0H19.9A2.369,2.369,0,0,0,17.53,2.369V17.655L7.364,25.788a2.369,2.369,0,1,0,2.96,3.7l4.048-3.238V53.426a4.739,4.739,0,0,1-2.491.586,5.25,5.25,0,0,1-3.445-1.184,9.809,9.809,0,0,0-6.067-1.975,2.369,2.369,0,0,0,0,4.738Zm38.049-4.738A9.467,9.467,0,0,0,34.9,52.467V39.482H45.958v13A9.472,9.472,0,0,0,40.418,50.853ZM22.268,4.738h4.738v5.337l-4.738,3.79ZM40.43,5.4,61.751,22.459V51.09a10.753,10.753,0,0,0-2.307-.236,9.816,9.816,0,0,0-6.069,1.974A5.465,5.465,0,0,1,50.7,53.971V37.114a2.369,2.369,0,0,0-2.369-2.369H32.534a2.369,2.369,0,0,0-2.369,2.369V53.974a5.444,5.444,0,0,1-2.706-1.146,9.808,9.808,0,0,0-6.066-1.975,10.758,10.758,0,0,0-2.282.232V22.459Z" transform="translate(0)" fill="#1f365c" stroke="#fff" stroke-width="1.8"/>
  </g>
</svg>
