<svg xmlns="http://www.w3.org/2000/svg" width="80.997" height="90.167" viewBox="0 0 80.997 90.167">
  <g id="Product_Section2_Icon2" transform="translate(-25.992 0.1)">
    <g id="Group_2457" data-name="Group 2457" transform="translate(26.092)">
      <g id="Group_2456" data-name="Group 2456" transform="translate(0)">
        <path id="Path_432" data-name="Path 432" d="M103.925,25.789c.006-.167.009-.333.009-.5a14.223,14.223,0,0,0-13.9-14.2A16.32,16.32,0,0,0,60.237,8.523,13.725,13.725,0,0,0,40.88,16.786a15.967,15.967,0,0,0,1.178,31.89H92.683a14.2,14.2,0,0,0,11.242-22.886ZM92.683,45.148H42.058a12.438,12.438,0,0,1,0-24.877l.086,0,.081,0h.047a1.764,1.764,0,0,0,1.733-1.435,10.189,10.189,0,0,1,15.967-6.355,1.764,1.764,0,0,0,2.677-.792A12.789,12.789,0,0,1,87,13.306a1.765,1.765,0,0,0,1.855,1.344c.326-.026.611-.039.871-.039a10.69,10.69,0,0,1,10.678,10.678c0,.3-.014.6-.042.921a1.764,1.764,0,0,0,.419,1.307,10.674,10.674,0,0,1-8.1,17.63Z" transform="translate(-26.092)" fill="#1f365c" stroke="#fff" stroke-width="0.2"/>
      </g>
    </g>
    <g id="Group_2459" data-name="Group 2459" transform="translate(37.415 57.055)">
      <g id="Group_2458" data-name="Group 2458">
        <path id="Path_433" data-name="Path 433" d="M102.685,327.679l-4.754-2.745a1.764,1.764,0,0,0-1.764,0l-4.752,2.745a1.764,1.764,0,0,0-.882,1.527V334.7a1.763,1.763,0,0,0,.882,1.527l4.752,2.745a1.764,1.764,0,0,0,1.764,0l4.754-2.745a1.764,1.764,0,0,0,.882-1.528v-5.488A1.765,1.765,0,0,0,102.685,327.679Zm-2.646,6-2.99,1.726-2.988-1.726v-3.451l2.988-1.726,2.99,1.726Z" transform="translate(-90.532 -324.698)" fill="#1f365c" stroke="#fff" stroke-width="0.2"/>
      </g>
    </g>
    <g id="Group_2461" data-name="Group 2461" transform="translate(59.974 57.055)">
      <g id="Group_2460" data-name="Group 2460" transform="translate(0)">
        <path id="Path_434" data-name="Path 434" d="M231.064,327.68l-4.752-2.745a1.764,1.764,0,0,0-1.765,0l-4.752,2.745a1.764,1.764,0,0,0-.882,1.527V334.7a1.763,1.763,0,0,0,.882,1.527l4.752,2.745a1.765,1.765,0,0,0,1.765,0l4.752-2.745a1.764,1.764,0,0,0,.882-1.528v-5.488A1.764,1.764,0,0,0,231.064,327.68Zm-2.646,6L225.43,335.4l-2.988-1.726v-3.451l2.988-1.726,2.988,1.726Z" transform="translate(-218.913 -324.698)" fill="#1f365c" stroke="#fff" stroke-width="0.2"/>
      </g>
    </g>
    <g id="Group_2463" data-name="Group 2463" transform="translate(82.531 57.055)">
      <g id="Group_2462" data-name="Group 2462">
        <path id="Path_435" data-name="Path 435" d="M359.438,327.68l-4.752-2.745a1.764,1.764,0,0,0-1.764,0l-4.754,2.745a1.764,1.764,0,0,0-.882,1.528V334.7a1.764,1.764,0,0,0,.882,1.528l4.754,2.745a1.765,1.765,0,0,0,1.765,0l4.752-2.745a1.764,1.764,0,0,0,.882-1.528v-5.488A1.765,1.765,0,0,0,359.438,327.68Zm-2.646,6L353.8,335.4l-2.99-1.726v-3.451l2.99-1.726,2.988,1.726Z" transform="translate(-347.285 -324.698)" fill="#1f365c" stroke="#fff" stroke-width="0.2"/>
      </g>
    </g>
    <g id="Group_2465" data-name="Group 2465" transform="translate(48.695 75.463)">
      <g id="Group_2464" data-name="Group 2464" transform="translate(0)">
        <path id="Path_436" data-name="Path 436" d="M166.874,432.44l-4.752-2.745a1.765,1.765,0,0,0-1.765,0L155.6,432.44a1.764,1.764,0,0,0-.882,1.528v5.488a1.764,1.764,0,0,0,.882,1.528l4.752,2.743a1.765,1.765,0,0,0,1.764,0l4.752-2.743a1.764,1.764,0,0,0,.882-1.528v-5.488A1.765,1.765,0,0,0,166.874,432.44Zm-2.646,6-2.988,1.725-2.988-1.725v-3.451l2.988-1.726,2.988,1.726Z" transform="translate(-154.723 -429.458)" fill="#1f365c" stroke="#fff" stroke-width="0.2"/>
      </g>
    </g>
    <g id="Group_2467" data-name="Group 2467" transform="translate(71.252 75.463)">
      <g id="Group_2466" data-name="Group 2466">
        <path id="Path_437" data-name="Path 437" d="M295.249,432.439l-4.752-2.745a1.763,1.763,0,0,0-1.764,0l-4.754,2.745a1.764,1.764,0,0,0-.882,1.528v5.488a1.763,1.763,0,0,0,.882,1.528l4.754,2.743a1.764,1.764,0,0,0,1.764,0l4.752-2.743a1.764,1.764,0,0,0,.882-1.528v-5.488A1.764,1.764,0,0,0,295.249,432.439Zm-2.646,6-2.988,1.725-2.99-1.725v-3.451l2.99-1.726,2.988,1.726Z" transform="translate(-283.096 -429.457)" fill="#1f365c" stroke="#fff" stroke-width="0.2"/>
      </g>
    </g>
    <g id="Group_2469" data-name="Group 2469" transform="translate(39.943 38.28)">
      <g id="Group_2468" data-name="Group 2468" transform="translate(0)">
        <path id="Path_438" data-name="Path 438" d="M116.114,217.851h-9.491a1.765,1.765,0,0,0,0,3.528h9.491A1.765,1.765,0,0,0,116.114,217.851Z" transform="translate(-104.918 -217.851)" fill="#1f365c" stroke="#fff" stroke-width="0.2"/>
      </g>
    </g>
    <g id="Group_2471" data-name="Group 2471" transform="translate(54.726 38.28)">
      <g id="Group_2470" data-name="Group 2470" transform="translate(0)">
        <path id="Path_439" data-name="Path 439" d="M190.753,217.851a1.765,1.765,0,0,0,0,3.528A1.765,1.765,0,0,0,190.753,217.851Z" transform="translate(-189.049 -217.851)" fill="#1f365c" stroke="#fff" stroke-width="0.2"/>
      </g>
    </g>
  </g>
</svg>
