<svg xmlns="http://www.w3.org/2000/svg" width="92.046" height="92.172" viewBox="0 0 92.046 92.172">
  <g id="Product_Section2_Icon1" transform="translate(0.758 1.105)">
    <path id="Path_430" data-name="Path 430" d="M79.7,31.943A10.454,10.454,0,0,0,68.519,16.766,11.88,11.88,0,0,0,62.626,6.48a11.736,11.736,0,0,0-13.109.955A12.751,12.751,0,0,0,25.759,8.94,12.131,12.131,0,0,0,9.03,24.627,13.149,13.149,0,0,0,.342,36.981v.113A13.14,13.14,0,0,0,13.467,50.218H26.583a11.065,11.065,0,0,0,7.536,5.235l-1.2,4.277a2.639,2.639,0,0,0,2.541,3.349h7.141L36.979,86.717a2.638,2.638,0,0,0,4.748,2.1l14.361-21.1A16.238,16.238,0,0,0,77.783,55.631H78.3a11.885,11.885,0,0,0,1.4-23.688ZM48.016,58.806a2.639,2.639,0,0,0-2.071-1h-7L44.285,38.7h11.9L51.275,50.231A2.638,2.638,0,0,0,53.7,53.9h5.4L45.433,73.986l3.079-12.934a2.638,2.638,0,0,0-.5-2.246Zm13.758,4.674a10.894,10.894,0,0,1-2.579-.334l5.114-7.515h8.073a10.908,10.908,0,0,1-10.608,7.848ZM78.3,50.354c-2.185,0-9.5,0-11.739,0a2.636,2.636,0,0,0-2.476-1.728H57.694l4.911-11.535a2.638,2.638,0,0,0-2.428-3.672H42.283a2.638,2.638,0,0,0-2.541,1.928l-4.19,14.982a5.769,5.769,0,0,1-5.239-5.737,2.639,2.639,0,0,0-5.277,0c0,.117.005.233.009.35H13.467a7.857,7.857,0,0,1-7.848-7.848V36.98a7.857,7.857,0,0,1,7.848-7.848,2.675,2.675,0,0,0,2-4.36l-.559-.649a6.842,6.842,0,1,1,10.391-8.9l.595.7a2.666,2.666,0,0,0,4.64-1.882l-.052-.81a7.465,7.465,0,0,1,14.82-1.66l.291,1.817a2.669,2.669,0,0,0,4.727,1.152l1.27-1.717A6.457,6.457,0,0,1,62.3,20.01a2.667,2.667,0,0,0,3.474,3.953L67.692,22.7a5.146,5.146,0,1,1,5.586,8.644c-3.742,1.64-3.366,5.38-.049,5.8H78.3C87.427,37.688,86.671,50.139,78.3,50.354Z" transform="translate(0 0)" fill="#1f365c" stroke="#fff" stroke-width="2.2"/>
    <path id="Path_431" data-name="Path 431" d="M162.369,121.914a17.736,17.736,0,0,0-6.253.042,14.932,14.932,0,0,0-10.566,7.376,2.639,2.639,0,1,0,4.567,2.644c3.625-6.261,10.87-4.954,11.206-4.889a2.639,2.639,0,0,0,1.046-5.172Z" transform="translate(-119.373 -100.261)" fill="#1f365c" stroke="#fff" stroke-width="2.2"/>
  </g>
</svg>
