<svg xmlns="http://www.w3.org/2000/svg" width="84.939" height="85.006" viewBox="0 0 84.939 85.006">
  <path id="Product_Section2_Icon3" d="M9104.752,1722.471a1.652,1.652,0,0,1-1.65-1.65v-7.258a1.652,1.652,0,0,1,1.65-1.65h3.794v-30.449l-1.4,1a1.652,1.652,0,0,1-2.3-.39l-4.536-6.383a1.651,1.651,0,0,1,.39-2.3l7.851-5.58v-14.134a1.652,1.652,0,0,1,1.65-1.65h8.909a1.652,1.652,0,0,1,1.65,1.65v5.458l14.222-10.107a1.645,1.645,0,0,1,1.911,0l7.551,5.366a25.4,25.4,0,0,0,.779-4.488,3.205,3.205,0,0,1,5.806-1.574,20.732,20.732,0,0,1,2.8,5.645,16.057,16.057,0,0,1,3.757-4.559c2.9-2.4,3.531-5.03,2.13-8.784a1.948,1.948,0,0,1,2.694-2.423c7.639,3.824,9.785,9.967,10.239,14.445a.675.675,0,0,0,.009.076,16.405,16.405,0,0,0,.447-2.524,3.206,3.206,0,0,1,5.931-1.358,33.76,33.76,0,0,1,5.407,18.749,21.955,21.955,0,0,1-21.118,21.916v22.4h3.794a1.65,1.65,0,0,1,1.65,1.65v7.258a1.65,1.65,0,0,1-1.65,1.65Zm1.65-3.3h59.063v-3.958H9106.4Zm40.418-7.258h13.2v-22.524a21.9,21.9,0,0,1-13.2-6.477Zm-18.477,0h15.179v-28.377h-15.179Zm-16.5-8.441v8.441h13.2v-30.027a1.65,1.65,0,0,1,1.65-1.648h17.9a21.8,21.8,0,0,1-4.018-12.641,19.871,19.871,0,0,1,.117-2.217l-4.76-3.381-24.085,17.119v24.355Zm48.6-31.788c-2.2,1.989-4.467,4.045-4.467,8.019a6.526,6.526,0,1,0,13.053,0c0-3.167-1.945-7.754-5.684-11.2A15.019,15.019,0,0,1,9160.445,1671.683Zm3.018-7.325c5.223,3.72,8.869,10.031,8.869,15.347a9.773,9.773,0,0,1-.991,4.294,18.65,18.65,0,0,0,9.8-16.4,30.17,30.17,0,0,0-4.782-16.8,20.974,20.974,0,0,1-4.931,11.221,1.651,1.651,0,0,1-2.764-1.664,19.643,19.643,0,0,0,.689-7.482,13.87,13.87,0,0,0-5.705-10.059c.431,3.573-.878,6.583-3.958,9.139a15.043,15.043,0,0,0-4.884,9.439,11.979,11.979,0,0,1-.113,1.2,1.65,1.65,0,0,1-3.277-.307c0-.069.016-.484.1-1.139a18.026,18.026,0,0,0-3.026-10.7,27.248,27.248,0,0,1-2.757,9.773,15.418,15.418,0,0,0-1.854,7.371,18.655,18.655,0,0,0,9.8,16.4,9.8,9.8,0,0,1-.989-4.294c0-5.437,3.206-8.344,5.548-10.467,1.63-1.475,2.628-2.436,2.628-3.538a1.648,1.648,0,0,1,2.607-1.341Zm-59.511,10.767,2.623,3.69,28.4-20.185a1.645,1.645,0,0,1,1.911,0l4.577,3.252a31.5,31.5,0,0,1,1.259-3.029c.187-.408.371-.816.556-1.238l-7.349-5.223Zm7.895-9.66,5.608-3.988v-6.152h-5.608Zm21.213,33.427a1.655,1.655,0,1,1,1.169.482A1.659,1.659,0,0,1,9133.06,1698.891Z" transform="translate(-9099.748 -1637.715)" fill="#1f365c" stroke="#fff" stroke-width="0.5"/>
</svg>
