<svg xmlns="http://www.w3.org/2000/svg" width="135" height="135" viewBox="0 0 135 135">
  <g id="Avatar5" transform="translate(-893 -546)">
    <circle id="Ellipse_54" data-name="Ellipse 54" cx="67.5" cy="67.5" r="67.5" transform="translate(893 546)" fill="#858da1" opacity="0.2"/>
    <g id="XMLID_3_" transform="translate(580 518.3)">
      <path id="XMLID_4_" d="M420.406,197.273v-6.846A13.671,13.671,0,0,0,406.779,176.8H353.627A13.671,13.671,0,0,0,340,190.427v6.846a63.535,63.535,0,0,0,80.406,0Z" transform="translate(0 -48.91)" fill="#e7e3e7" fill-rule="evenodd"/>
      <path id="XMLID_5_" d="M394.3,221.617c1.679.129,3.423.194,5.167.194s3.423-.065,5.1-.194l-2.26-14.983-2.842-1.033-2.842,1.033Z" transform="translate(-19.231 -59.11)" fill="#d26070" fill-rule="evenodd"/>
      <path id="XMLID_6_" d="M404.556,195.967,402.1,202.49h-5.683l-2.519-6.523,1.292-1.1,4.069-.969,4.069.969Z" transform="translate(-19.09 -54.967)" fill="#a94b64" fill-rule="evenodd"/>
      <path id="XMLID_7_" d="M420.406,197.273v-6.846A13.671,13.671,0,0,0,406.779,176.8H386.435l-1.1.646,3.81,11.754-2.454,22.023a62.537,62.537,0,0,0,33.712-13.95Zm-80.406,0v-6.846A13.671,13.671,0,0,1,353.627,176.8h20.344l1.1.646-3.81,11.754,2.454,22.023A62.537,62.537,0,0,1,340,197.273Z" transform="translate(0 -48.91)" fill="#4c3b82" fill-rule="evenodd"/>
      <path id="XMLID_10_" d="M413.592,188.156l1.162,3.552L412.3,213.731a72.115,72.115,0,0,0,7.621-1.227l4.973-9.623L418.823,183.7C416.95,184.152,415.206,185.831,413.592,188.156Z" transform="translate(-25.606 -51.354)" fill="#30295e" fill-rule="evenodd"/>
      <path id="XMLID_11_" d="M396.279,127.2h0a11.011,11.011,0,0,1,10.979,10.979v21.054a11.011,11.011,0,0,1-10.979,10.979h0A11.011,11.011,0,0,1,385.3,159.233V138.179A10.929,10.929,0,0,1,396.279,127.2Z" transform="translate(-16.043 -31.344)" fill="#e9baa8" fill-rule="evenodd"/>
      <path id="XMLID_12_" d="M396.244,127.2h0a11.011,11.011,0,0,1,10.979,10.979v18.083a22.451,22.451,0,0,1-9.494,2.131h0a22.283,22.283,0,0,1-12.529-3.875v-16.34A11.025,11.025,0,0,1,396.244,127.2Z" transform="translate(-16.008 -31.344)" fill="#d58881" fill-rule="evenodd"/>
      <g id="XMLID_13_" transform="translate(351.104 87.262)">
        <path id="XMLID_14_" d="M357.2,119.193a6.962,6.962,0,0,0,6.846,7.169h.323a27.587,27.587,0,0,1-1.1-7.427V116.8C363.269,112.477,357.392,112.735,357.2,119.193Z" transform="translate(-357.194 -113.893)" fill="#d58881" fill-rule="evenodd"/>
        <path id="XMLID_15_" d="M443.369,119.193a6.962,6.962,0,0,1-6.846,7.169H436.2a27.587,27.587,0,0,0,1.1-7.427V116.8C437.3,112.477,443.175,112.735,443.369,119.193Z" transform="translate(-385.175 -113.893)" fill="#d58881" fill-rule="evenodd"/>
      </g>
      <path id="XMLID_16_" d="M389.656,59.2h0C377,59.2,366.6,69.921,366.6,83.031v21.635c0,13.11,10.4,23.831,23.056,23.831h0c12.658,0,23.056-10.721,23.056-23.831V83.031C412.648,69.921,402.315,59.2,389.656,59.2Z" transform="translate(-9.421 -7.26)" fill="#e9baa8" fill-rule="evenodd"/>
      <circle id="XMLID_17_" cx="3.294" cy="3.294" r="3.294" transform="translate(390.633 98.44)" fill="#d58881"/>
      <circle id="XMLID_18_" cx="3.294" cy="3.294" r="3.294" transform="translate(363.121 98.956)" fill="#d58881"/>
      <path id="XMLID_19_" d="M402.771,126.3a22.708,22.708,0,0,1,1.163,3.94c-.065.517-2.777.646-3.423-.129-.452-.517.129-2.39.646-3.681C401.8,124.625,402.19,124.561,402.771,126.3Z" transform="translate(-21.373 -30.577)" fill="#f1d3c8" fill-rule="evenodd"/>
      <g id="XMLID_20_" transform="translate(363.865 80.663)">
        <path id="XMLID_21_" d="M385.314,104.4a1.026,1.026,0,0,1-.84,1.873,6.659,6.659,0,0,0-5.942.387,1.03,1.03,0,0,1-1.1-1.744A8.626,8.626,0,0,1,385.314,104.4Z" transform="translate(-376.952 -103.675)" fill="#30295e" fill-rule="evenodd"/>
        <path id="XMLID_22_" d="M422,104.909a1,1,0,1,1-.969,1.744,6.641,6.641,0,0,0-5.942-.129,1.011,1.011,0,1,1-.9-1.808A8.373,8.373,0,0,1,422,104.909Z" transform="translate(-389.94 -103.731)" fill="#30295e" fill-rule="evenodd"/>
      </g>
      <path id="XMLID_23_" d="M436.958,98.877s-3.1.065-3.1,2.842a9.611,9.611,0,0,1-1.744-6.458s-5.877-6.91-5.619-14.6S432.76,71.3,432.76,71.3C447.162,75.563,436.958,85.767,436.958,98.877Z" transform="translate(-30.631 -11.546)" fill="#30295e" fill-rule="evenodd"/>
      <path id="XMLID_24_" d="M359.877,98.877s3.1.065,3.1,2.842a9.611,9.611,0,0,0,1.744-6.458s5.877-6.91,5.619-14.6-6.265-9.365-6.265-9.365C349.672,75.563,359.877,85.767,359.877,98.877Z" transform="translate(-5.797 -11.546)" fill="#30295e" fill-rule="evenodd"/>
      <path id="XMLID_25_" d="M392.925,46.127a13.89,13.89,0,0,1,6.329-1.55,13.627,13.627,0,1,1,0,27.254,13.814,13.814,0,0,1-9.365-3.681,8.175,8.175,0,0,1-13.3,1.808,8.167,8.167,0,0,1-6.652,3.358,8.386,8.386,0,0,1-7.362-4.456,11.806,11.806,0,0,1,2.648-23.315,11.565,11.565,0,0,1,3.681.581,13.428,13.428,0,0,1,24.025,0Z" transform="translate(-4.746 0)" fill="#30295e" fill-rule="evenodd"/>
      <path id="XMLID_26_" d="M402.3,186.746l7.75,7.427s2.906,1.679,4-.775c1.163-2.454,4.585-17.7,4.585-17.7l-5.425-2C413.279,173.7,412.956,183.194,402.3,186.746Z" transform="translate(-22.065 -47.813)" fill="#fff" fill-rule="evenodd"/>
      <path id="XMLID_27_" d="M447.971,182.447a.32.32,0,0,1,.452.452s-2.777,2.906-2.777,9.817v14.273a6,6,0,0,1-.646.323v-14.6C445,185.547,447.971,182.447,447.971,182.447Z" transform="translate(-37.188 -50.876)" fill="#1c1341" fill-rule="evenodd"/>
      <path id="XMLID_28_" d="M384,188.156l-1.163,3.552,2.454,22.023a72.117,72.117,0,0,1-7.621-1.227l-4.973-9.623,6.071-19.181C380.644,184.152,382.388,185.831,384,188.156Z" transform="translate(-11.581 -51.354)" fill="#30295e" fill-rule="evenodd"/>
      <path id="XMLID_29_" d="M393.34,186.746l-7.75,7.427s-2.906,1.679-4-.775c-1.162-2.454-4.585-17.7-4.585-17.7l5.425-2C382.3,173.7,382.619,183.194,393.34,186.746Z" transform="translate(-13.104 -47.813)" fill="#fff" fill-rule="evenodd"/>
      <path id="XMLID_30_" d="M354.6,182.447a.32.32,0,0,0-.452.452s2.777,2.906,2.777,9.817v14.273a6,6,0,0,0,.646.323v-14.6C357.57,185.547,354.6,182.447,354.6,182.447Z" transform="translate(-4.976 -50.876)" fill="#1c1341" fill-rule="evenodd"/>
      <path id="XMLID_31_" d="M360.9,51.731c12.271,10.4,30.806,18.987,54.7,10.075a13.4,13.4,0,0,0-3.617-8.977c-19.5,6.975-34.94,3.165-46.048-3.229A11.064,11.064,0,0,0,360.9,51.731Z" transform="translate(-7.402 -3.86)" fill="#48416e" fill-rule="evenodd"/>
      <g id="XMLID_32_" transform="translate(365.833 88.881)">
        <path id="XMLID_33_" d="M382.842,122.083A2.842,2.842,0,1,0,380,119.242,2.867,2.867,0,0,0,382.842,122.083Z" transform="translate(-380 -116.4)" fill="#30295e" fill-rule="evenodd"/>
        <path id="XMLID_34_" d="M418.542,122.083a2.842,2.842,0,1,0-2.842-2.842A2.825,2.825,0,0,0,418.542,122.083Z" transform="translate(-392.644 -116.4)" fill="#30295e" fill-rule="evenodd"/>
      </g>
      <path id="XMLID_35_" d="M404.575,140.4a5.037,5.037,0,1,1-10.075,0,.883.883,0,0,1,.9-.9h8.2A.9.9,0,0,1,404.575,140.4Z" transform="translate(-19.302 -35.697)" fill="#fff" fill-rule="evenodd"/>
    </g>
  </g>
</svg>
