<svg xmlns="http://www.w3.org/2000/svg" width="135" height="135" viewBox="0 0 135 135">
  <g id="Avatar4" transform="translate(-693 -546)">
    <circle id="Ellipse_54" data-name="Ellipse 54" cx="67.5" cy="67.5" r="67.5" transform="translate(693 546)" fill="#858da1" opacity="0.2"/>
    <g id="XMLID_101_" transform="translate(719.804 557)">
      <path id="XMLID_102_" d="M419.974,194.361v-6.854A13.748,13.748,0,0,0,406.267,173.8H352.808A13.748,13.748,0,0,0,339.1,187.508v6.854a63.888,63.888,0,0,0,80.874,0Z" transform="translate(-339.1 -85.002)" fill="#d26070" fill-rule="evenodd"/>
      <path id="XMLID_103_" d="M395.1,124.3h0a11.129,11.129,0,0,1,11.1,11.1v21.214a11.129,11.129,0,0,1-11.1,11.1h0a11.129,11.129,0,0,1-11.1-11.1V135.4A11.215,11.215,0,0,1,395.1,124.3Z" transform="translate(-354.692 -67.813)" fill="#e9baa8" fill-rule="evenodd"/>
      <path id="XMLID_104_" d="M395.131,124.3h0a11.129,11.129,0,0,1,11.1,11.1v18.146a22.4,22.4,0,0,1-9.53,2.154h0a22.767,22.767,0,0,1-12.6-3.851V135.4A11.116,11.116,0,0,1,395.131,124.3Z" transform="translate(-354.727 -67.813)" fill="#d58881" fill-rule="evenodd"/>
      <g id="XMLID_105_" transform="translate(11.158 47.878)">
        <path id="XMLID_106_" d="M356.2,116.456a7.065,7.065,0,0,0,6.854,7.245h.326a27.421,27.421,0,0,1-1.11-7.441v-2.154C362.268,109.668,356.328,109.929,356.2,116.456Z" transform="translate(-356.194 -111.11)" fill="#d58881" fill-rule="evenodd"/>
        <path id="XMLID_107_" d="M442.08,116.456a7.065,7.065,0,0,1-6.854,7.245H434.9a27.423,27.423,0,0,0,1.11-7.441v-2.154C436.01,109.668,441.884,109.929,442.08,116.456Z" transform="translate(-383.526 -111.11)" fill="#d58881" fill-rule="evenodd"/>
      </g>
      <path id="XMLID_108_" d="M388.672,56.6h0c-12.728,0-23.172,10.77-23.172,23.955v21.8c0,13.185,10.444,23.955,23.172,23.955h0c12.728,0,23.172-10.77,23.172-23.955v-21.8C411.91,67.435,401.466,56.6,388.672,56.6Z" transform="translate(-348.268 -44.303)" fill="#e9baa8" fill-rule="evenodd"/>
      <ellipse id="XMLID_109_" cx="3.329" cy="3.329" rx="3.329" ry="3.329" transform="translate(50.913 59.098)" fill="#d58881"/>
      <ellipse id="XMLID_110_" cx="3.329" cy="3.329" rx="3.329" ry="3.329" transform="translate(23.237 59.621)" fill="#d58881"/>
      <path id="XMLID_111_" d="M404.1,123.444a22.96,22.96,0,0,1,1.175,3.982c-.065.522-2.742.653-3.46-.131-.457-.522.131-2.415.587-3.721C403.052,121.812,403.444,121.747,404.1,123.444Z" transform="translate(-360.82 -67.087)" fill="#f1d3c8" fill-rule="evenodd"/>
      <g id="XMLID_112_" transform="translate(24.185 41.226)">
        <path id="XMLID_113_" d="M384.408,101.625a.994.994,0,1,1-.783,1.828,6.6,6.6,0,0,0-5.94.392,1,1,0,0,1-1.044-1.7A8.6,8.6,0,0,1,384.408,101.625Z" transform="translate(-376.152 -100.919)" fill="#30295e" fill-rule="evenodd"/>
        <path id="XMLID_114_" d="M420.794,102.143a1.008,1.008,0,0,1-.979,1.762,6.712,6.712,0,0,0-6.005-.131,1.022,1.022,0,0,1-.914-1.828A8.915,8.915,0,0,1,420.794,102.143Z" transform="translate(-388.713 -100.98)" fill="#30295e" fill-rule="evenodd"/>
      </g>
      <path id="XMLID_115_" d="M435.67,96.576s-3.133.065-3.133,2.872a9.624,9.624,0,0,1-1.762-6.462s-5.94-6.919-5.679-14.687,6.332-9.4,6.332-9.4C445.918,73.078,435.67,83.326,435.67,96.576Z" transform="translate(-368.96 -48.574)" fill="#765a3c" fill-rule="evenodd"/>
      <path id="XMLID_116_" d="M358.829,96.576s3.133.065,3.133,2.872a9.624,9.624,0,0,0,1.762-6.462s5.94-6.919,5.679-14.687-6.332-9.4-6.332-9.4C348.581,73.078,358.829,83.326,358.829,96.576Z" transform="translate(-344.73 -48.574)" fill="#765a3c" fill-rule="evenodd"/>
      <path id="XMLID_117_" d="M398.034,68.661s-1.958,3.851-3.721,3.59c-1.762-.2-2.48-2.611-1.828-5.222,0,0-7.115-5.483-12.01-4.047s-12.01,21.083-23.237,20.561S336.285,70.75,342.16,56.977,360.5,36.416,378.648,37.982c18.146,1.5,23.76,12.271,23.433,20.039S398.034,68.661,398.034,68.661Z" transform="translate(-339.549 -37.761)" fill="#a17b38" fill-rule="evenodd"/>
      <path id="XMLID_118_" d="M401,183.72l7.833,7.507s2.872,1.7,4.047-.783,4.634-17.82,4.634-17.82L412.1,170.6C412.1,170.665,411.77,180.13,401,183.72Z" transform="translate(-360.596 -83.891)" fill="#fff" fill-rule="evenodd"/>
      <path id="XMLID_119_" d="M392.214,183.72l-7.833,7.507s-2.872,1.7-4.047-.783-4.634-17.82-4.634-17.82l5.418-2.023C381.183,170.665,381.444,180.13,392.214,183.72Z" transform="translate(-351.81 -83.891)" fill="#fff" fill-rule="evenodd"/>
      <path id="XMLID_120_" d="M397.262,48.415C385.774,60.034,366.583,72.5,340.8,64.6a23.23,23.23,0,0,1,1.436-4.765,29.723,29.723,0,0,1,2.219-4.308c22.585,6.723,39.425-1.044,50.065-9.53A20.1,20.1,0,0,1,397.262,48.415Z" transform="translate(-339.69 -40.622)" fill="#b49a61" fill-rule="evenodd"/>
      <g id="XMLID_121_" transform="translate(25.979 49.307)">
        <path id="XMLID_122_" d="M381.772,119.044a2.872,2.872,0,1,0-2.872-2.872A2.9,2.9,0,0,0,381.772,119.044Z" transform="translate(-378.9 -113.3)" fill="#30295e" fill-rule="evenodd"/>
        <path id="XMLID_123_" d="M417.272,119.044a2.872,2.872,0,1,0-2.872-2.872A2.9,2.9,0,0,0,417.272,119.044Z" transform="translate(-391.228 -113.3)" fill="#30295e" fill-rule="evenodd"/>
      </g>
      <path id="XMLID_124_" d="M403.383,137.511a5.091,5.091,0,1,1-10.183,0,.892.892,0,0,1,.914-.914h8.29A.876.876,0,0,1,403.383,137.511Z" transform="translate(-357.887 -72.081)" fill="#fff" fill-rule="evenodd"/>
    </g>
  </g>
</svg>
