<svg xmlns="http://www.w3.org/2000/svg" width="135" height="135.046" viewBox="0 0 135 135.046">
  <g id="Avatar2" transform="translate(-893 -376)">
    <circle id="Ellipse_54" data-name="Ellipse 54" cx="67.5" cy="67.5" r="67.5" transform="translate(893 376)" fill="#858da1" opacity="0.2"/>
    <g id="XMLID_125_" transform="translate(920 391)">
      <path id="XMLID_126_" d="M267.874,425.261v-6.854A13.748,13.748,0,0,0,254.167,404.7H200.707A13.748,13.748,0,0,0,187,418.408v6.854a63.889,63.889,0,0,0,80.874,0Z" transform="translate(-187 -319.641)" fill="#30295e" fill-rule="evenodd"/>
      <path id="XMLID_127_" d="M257.27,404.7H221.5A17.926,17.926,0,0,0,239.385,422h0A17.882,17.882,0,0,0,257.27,404.7Z" transform="translate(-198.981 -319.641)" fill="#fff" fill-rule="evenodd"/>
      <path id="XMLID_128_" d="M243,355.3h0a11.129,11.129,0,0,1,11.1,11.1v21.214a11.129,11.129,0,0,1-11.1,11.1h0a11.129,11.129,0,0,1-11.1-11.1V366.4A11.171,11.171,0,0,1,243,355.3Z" transform="translate(-202.592 -302.486)" fill="#e9baa8" fill-rule="evenodd"/>
      <path id="XMLID_129_" d="M243.031,355.3h0a11.129,11.129,0,0,1,11.1,11.1v18.146a22.4,22.4,0,0,1-9.53,2.154h0a22.767,22.767,0,0,1-12.6-3.851V366.4A11.073,11.073,0,0,1,243.031,355.3Z" transform="translate(-202.627 -302.486)" fill="#d58881" fill-rule="evenodd"/>
      <g id="XMLID_130_" transform="translate(11.158 44.16)">
        <path id="XMLID_131_" d="M204.1,347.367a7.065,7.065,0,0,0,6.854,7.245h.326a27.421,27.421,0,0,1-1.11-7.441v-2.154C210.168,340.579,204.228,340.905,204.1,347.367Z" transform="translate(-204.094 -342.043)" fill="#d58881" fill-rule="evenodd"/>
        <path id="XMLID_132_" d="M289.98,347.367a7.065,7.065,0,0,1-6.854,7.245H282.8a27.425,27.425,0,0,0,1.11-7.441v-2.154C283.844,340.579,289.784,340.905,289.98,347.367Z" transform="translate(-231.426 -342.043)" fill="#d58881" fill-rule="evenodd"/>
      </g>
      <path id="XMLID_133_" d="M236.572,287.6h0c-12.728,0-23.172,10.77-23.172,23.955v21.8c0,13.185,10.444,23.956,23.172,23.956h0c12.728,0,23.172-10.77,23.172-23.956v-21.8C259.744,298.37,249.366,287.6,236.572,287.6Z" transform="translate(-196.168 -278.977)" fill="#e9baa8" fill-rule="evenodd"/>
      <ellipse id="XMLID_134_" cx="3.329" cy="3.329" rx="3.329" ry="3.329" transform="translate(50.913 55.359)" fill="#d58881"/>
      <ellipse id="XMLID_135_" cx="3.329" cy="3.329" rx="3.329" ry="3.329" transform="translate(23.237 55.882)" fill="#d58881"/>
      <path id="XMLID_136_" d="M252,354.344a22.953,22.953,0,0,1,1.175,3.982c-.065.522-2.741.653-3.46-.131-.457-.522.131-2.415.587-3.721C250.952,352.712,251.344,352.647,252,354.344Z" transform="translate(-208.72 -301.726)" fill="#f1d3c8" fill-rule="evenodd"/>
      <g id="XMLID_137_" transform="translate(24.12 37.506)">
        <path id="XMLID_138_" d="M232.208,332.6a.994.994,0,0,1-.783,1.828,6.6,6.6,0,0,0-5.94.392,1,1,0,0,1-1.044-1.7A8.124,8.124,0,0,1,232.208,332.6Z" transform="translate(-223.952 -331.848)" fill="#30295e" fill-rule="evenodd"/>
        <path id="XMLID_139_" d="M268.694,333.043a1.008,1.008,0,1,1-.979,1.762,6.712,6.712,0,0,0-6.005-.131,1.022,1.022,0,0,1-.914-1.828A8.915,8.915,0,0,1,268.694,333.043Z" transform="translate(-236.548 -331.899)" fill="#30295e" fill-rule="evenodd"/>
      </g>
      <path id="XMLID_140_" d="M259.34,327.476s-3.133.065-3.133,2.872a9.623,9.623,0,0,1-1.762-6.462s-5.94-6.919-5.679-14.687,6.332-9.4,6.332-9.4c14.491,4.178,4.243,14.425,4.243,27.676Zm-52.611,0s3.133.065,3.133,2.872a9.623,9.623,0,0,0,1.762-6.462s5.94-6.919,5.679-14.687-6.332-9.4-6.332-9.4C196.481,303.978,206.729,314.226,206.729,327.476Z" transform="translate(-192.63 -283.213)" fill="#98564d" fill-rule="evenodd"/>
      <path id="XMLID_143_" d="M214.315,290.976s-1.24-9.53,1.7-12.859c2.937-3.264,20.757-5.352,31.005-2.089s12.859,7.311,12.859,7.311a11.42,11.42,0,0,1,5.222-1.958c2.872-.2,4.178,6.2,1.828,10.378-2.285,4.178-9.6,10.574-19.321,10.574H223.779s.326,5.483-5.679,4.9C211.116,306.641,212.487,295.545,214.315,290.976Z" transform="translate(-195.973 -274.389)" fill="#d77357" fill-rule="evenodd"/>
      <path id="XMLID_144_" d="M216,281.672c10.117,9.987,25.914,20.3,46.671,17.493a20.244,20.244,0,0,0,5.483-5.875,11.07,11.07,0,0,0,1.175-5.548c-22.976,7.311-40.143-.457-50.979-8.943a4.555,4.555,0,0,0-1.175.849A5.175,5.175,0,0,0,216,281.672Z" transform="translate(-197.071 -275.921)" fill="#dd8d78" fill-rule="evenodd"/>
      <g id="XMLID_145_" transform="translate(25.979 45.634)">
        <path id="XMLID_146_" d="M229.672,350.044a2.872,2.872,0,1,0-2.872-2.872A2.855,2.855,0,0,0,229.672,350.044Z" transform="translate(-226.8 -344.3)" fill="#30295e" fill-rule="evenodd"/>
        <path id="XMLID_147_" d="M265.172,350.044a2.872,2.872,0,1,0-2.872-2.872A2.855,2.855,0,0,0,265.172,350.044Z" transform="translate(-239.128 -344.3)" fill="#30295e" fill-rule="evenodd"/>
      </g>
      <g id="XMLID_148_" transform="translate(35.313 59.537)">
        <path id="XMLID_149_" d="M251.283,366.514a5.091,5.091,0,1,1-10.183,0,.892.892,0,0,1,.914-.914h8.29A.948.948,0,0,1,251.283,366.514Z" transform="translate(-241.1 -365.6)" fill="#1c1341" fill-rule="evenodd"/>
        <path id="XMLID_150_" d="M243.4,365.6h7.245v.849a.794.794,0,0,1-.783.783h-5.614a.794.794,0,0,1-.783-.783V365.6Z" transform="translate(-241.899 -365.6)" fill="#fff" fill-rule="evenodd"/>
        <path id="XMLID_151_" d="M250.711,371.567a5.048,5.048,0,0,1-7.311,0A4.974,4.974,0,0,1,247.055,370,5.2,5.2,0,0,1,250.711,371.567Z" transform="translate(-241.899 -367.128)" fill="#d26070" fill-rule="evenodd"/>
      </g>
    </g>
  </g>
</svg>
