<svg xmlns="http://www.w3.org/2000/svg" width="135" height="135" viewBox="0 0 135 135">
  <g id="Avatar1" transform="translate(-693 -376)">
    <circle id="Ellipse_54" data-name="Ellipse 54" cx="67.5" cy="67.5" r="67.5" transform="translate(693 376)" fill="#858da1" opacity="0.2"/>
    <g id="XMLID_3_" transform="translate(720 392)">
      <path id="XMLID_4_" d="M71.2,169.432l1.828-1.632,1.175,1.436-1.828,1.893Z" transform="translate(-46.527 -85.555)" fill="#7a6757" fill-rule="evenodd"/>
      <path id="XMLID_5_" d="M118.068,169.432,116.24,167.8,115,169.236l1.893,1.893Z" transform="translate(-61.737 -85.555)" fill="#7a6757" fill-rule="evenodd"/>
      <path id="XMLID_6_" d="M114.374,190.461v-6.854A13.748,13.748,0,0,0,100.667,169.9H47.207A13.748,13.748,0,0,0,33.5,183.607v6.854a63.889,63.889,0,0,0,80.874,0Z" transform="translate(-33.435 -86.284)" fill="#30295e" fill-rule="evenodd"/>
      <path id="XMLID_7_" d="M103.77,169.8H68a17.926,17.926,0,0,0,17.885,17.3h0A17.837,17.837,0,0,0,103.77,169.8Z" transform="translate(-45.415 -86.25)" fill="#fff" fill-rule="evenodd"/>
      <path id="XMLID_8_" d="M89.5,120.4h0a11.129,11.129,0,0,1,11.1,11.1v21.214a11.129,11.129,0,0,1-11.1,11.1h0a11.129,11.129,0,0,1-11.1-11.1V131.5A11.171,11.171,0,0,1,89.5,120.4Z" transform="translate(-49.027 -69.095)" fill="#e9baa8" fill-rule="evenodd"/>
      <path id="XMLID_9_" d="M100.628,144.6v13.446a12.263,12.263,0,0,1-3.46,2.154c-6.005,2.089-8.094,1.958-9.661,1.958-1.5,0-3.46.131-9.008-1.7v-9.726c.849,1.371,1.7,2.415,2.546,2.415a10.066,10.066,0,0,0,4.5-1.175,7.452,7.452,0,0,1,2.023-.261,7.718,7.718,0,0,1,2.023.261,9.782,9.782,0,0,0,4.5,1.175C96.124,153.151,98.082,146.428,100.628,144.6Z" transform="translate(-49.062 -77.499)" fill="#d58881" fill-rule="evenodd"/>
      <g id="XMLID_10_" transform="translate(9.787 42.696)">
        <path id="XMLID_11_" d="M48.4,112.556a7.065,7.065,0,0,0,6.854,7.245h.326a27.424,27.424,0,0,1-1.11-7.441v-2.154C54.468,105.768,48.528,106.029,48.4,112.556Z" transform="translate(-48.394 -107.21)" fill="#d58881" fill-rule="evenodd"/>
        <path id="XMLID_12_" d="M138.68,112.556a7.065,7.065,0,0,1-6.854,7.245H131.5a27.423,27.423,0,0,0,1.11-7.441v-2.154C132.61,105.768,138.484,106.029,138.68,112.556Z" transform="translate(-77.254 -107.21)" fill="#d58881" fill-rule="evenodd"/>
      </g>
      <path id="XMLID_13_" d="M76.992,53.33c0-.065-2.48-11.749,9.922-10.574l-.065.979c-11.1-1.044-8.877,9.4-8.877,9.465Z" transform="translate(-48.468 -42.103)" fill="#30295e" fill-rule="evenodd"/>
      <path id="XMLID_14_" d="M98.6,43.563c.065,0,11.815-1.567,10.117,10.183l-.979-.131c1.5-10.444-9.008-9.073-9.073-9.073Z" transform="translate(-56.042 -42.388)" fill="#30295e" fill-rule="evenodd"/>
      <path id="XMLID_15_" d="M90.156,61.513A9.856,9.856,0,1,0,80.3,51.656,9.89,9.89,0,0,0,90.156,61.513Z" transform="translate(-49.687 -41.8)" fill="#30295e" fill-rule="evenodd"/>
      <path id="XMLID_16_" d="M83.072,52.7h0A23.261,23.261,0,0,0,59.9,75.872V96.956a23.261,23.261,0,0,0,23.172,23.172h0a23.261,23.261,0,0,0,23.172-23.172V75.872A23.219,23.219,0,0,0,83.072,52.7Z" transform="translate(-42.602 -45.585)" fill="#e9baa8" fill-rule="evenodd"/>
      <path id="XMLID_17_" d="M80.155,69.22H93.145c6.266,0,8.42,5.418,8.42,8.486v7.572c0,5.94,1.762,7.311,1.762,7.311,0-4.7,1.436-1.893,1.436-1.893s3.916-10.966,3.916-16.449S103.2,61.322,95.951,56.3A27.745,27.745,0,0,0,80.09,51.4h0a27.745,27.745,0,0,0-15.861,4.9C56.983,61.387,51.5,68.763,51.5,74.246s3.916,16.449,3.916,16.449,1.436-2.807,1.436,1.893c0,0,1.762-1.436,1.762-7.311V77.705c0-3.068,2.154-8.486,8.42-8.486Z" transform="translate(-39.685 -45.134)" fill="#30295e" fill-rule="evenodd"/>
      <path id="XMLID_18_" d="M57.7,99.693v19.19c0,5.679,8.942,19.452,14.948,21.475,6.005,2.089,8.094,1.958,9.661,1.958s3.655.131,9.661-1.958,14.948-15.8,14.948-21.475V99.693l-3.2-1.893c0,3.2.326,16.775.065,20.822-.261,4.178-3.394,4.569-7.506,5.679-2.937.783-5.091,8.943-7.441,8.943a10.065,10.065,0,0,1-4.5-1.175,7.452,7.452,0,0,0-2.023-.261,7.719,7.719,0,0,0-2.023.261,9.781,9.781,0,0,1-4.5,1.175c-2.35,0-4.5-8.159-7.441-8.943-4.112-1.11-7.311-1.5-7.506-5.679C60.572,114.51,60.9,101,60.9,97.8Z" transform="translate(-41.839 -61.247)" fill="#30295e" fill-rule="evenodd"/>
      <ellipse id="XMLID_19_" cx="3.329" cy="3.329" rx="3.329" ry="3.329" transform="translate(50.979 53.916)" fill="#d58881"/>
      <ellipse id="XMLID_20_" cx="3.329" cy="3.329" rx="3.329" ry="3.329" transform="translate(23.303 54.438)" fill="#d58881"/>
      <path id="XMLID_21_" d="M96.1,119.531a22.955,22.955,0,0,1,1.175,3.982c-.065.522-2.741.653-3.46-.131-.457-.522.131-2.415.587-3.721C95.118,117.9,95.509,117.768,96.1,119.531Z" transform="translate(-54.321 -68.356)" fill="#f1d3c8" fill-rule="evenodd"/>
      <g id="XMLID_22_" transform="translate(24.185 36.058)">
        <path id="XMLID_23_" d="M78.708,97.732A1.082,1.082,0,0,1,79.23,99.1a1.029,1.029,0,0,1-1.305.522,6.6,6.6,0,0,0-5.94.392,1,1,0,0,1-1.044-1.7A8.442,8.442,0,0,1,78.708,97.732Z" transform="translate(-70.452 -97.041)" fill="#30295e" fill-rule="evenodd"/>
        <path id="XMLID_24_" d="M115.194,98.243a1.008,1.008,0,1,1-.979,1.762,6.712,6.712,0,0,0-6.005-.131,1.022,1.022,0,1,1-.914-1.828A8.915,8.915,0,0,1,115.194,98.243Z" transform="translate(-83.048 -97.095)" fill="#30295e" fill-rule="evenodd"/>
      </g>
      <path id="XMLID_25_" d="M87.879,104.667a15.873,15.873,0,0,1-4.112,1.044,13.627,13.627,0,0,1-4.112-1.044c-3.46-1.175-12.206-1.893-17.754-.131l.2,3.068a1.147,1.147,0,0,1,1.305.914c.326,1.11,1.11,5.679,2.48,7.441,1.762,2.219,5.548,2.285,8.094,2.219,3.459-.131,5.679-1.7,6.658-4.243.979-2.611,1.5-4.765,2.089-5.483a1.42,1.42,0,0,1,1.958,0c.587.718,1.175,2.937,2.089,5.483.979,2.611,3.2,4.112,6.658,4.243,2.546.131,6.332,0,8.094-2.219,1.436-1.762,2.154-6.332,2.48-7.441a1.147,1.147,0,0,1,1.305-.914l.2-3.068c-5.418-1.762-14.164-.979-17.624.131Zm-8.747,9.2h0c-.914,1.762-2.48,2.611-4.765,2.937a11.362,11.362,0,0,1-6.527-.979c-1.24-.718-1.828-3.068-2.154-4.439s-.783-4.439.653-5.418,5.026-1.044,7.441-.914c1.828.131,5.744.587,6.462,1.958s-.326,5.483-1.11,6.854Zm22.715-2.546h0c-.326,1.371-.914,3.721-2.154,4.439a11.268,11.268,0,0,1-6.527.979c-2.35-.326-3.851-1.175-4.765-2.937-.718-1.371-1.828-5.483-1.11-6.919.718-1.371,4.634-1.893,6.462-1.958,2.415-.131,6.005-.065,7.441.914C102.631,106.952,102.109,109.955,101.847,111.325Z" transform="translate(-43.297 -63.219)" fill="#30295e" fill-rule="evenodd"/>
      <path id="XMLID_29_" d="M143.336,189.732v-6.854a14.137,14.137,0,0,0-13.251-14.295L116.9,167.8v34.791A63.753,63.753,0,0,0,143.336,189.732Z" transform="translate(-62.396 -85.555)" fill="#b49a61" fill-rule="evenodd"/>
      <path id="XMLID_30_" d="M33.4,189.732v-6.854a14.137,14.137,0,0,1,13.251-14.295l13.185-.783v34.791A63.754,63.754,0,0,1,33.4,189.732Z" transform="translate(-33.4 -85.555)" fill="#b49a61" fill-rule="evenodd"/>
      <path id="XMLID_31_" d="M76.5,54.689c9.465,7.572,22.389,13.838,38.316,12.4a35.119,35.119,0,0,0-8.094-8.812A51.978,51.978,0,0,1,82.375,52.6,27.412,27.412,0,0,0,76.5,54.689Z" transform="translate(-48.367 -45.55)" fill="#48416e" fill-rule="evenodd"/>
      <g id="XMLID_32_" transform="translate(26.044 44.125)">
        <path id="XMLID_33_" d="M76.172,115.144a2.872,2.872,0,1,0-2.872-2.872A2.855,2.855,0,0,0,76.172,115.144Z" transform="translate(-73.3 -109.4)" fill="#30295e" fill-rule="evenodd"/>
        <path id="XMLID_34_" d="M111.672,115.144a2.872,2.872,0,1,0-2.872-2.872A2.9,2.9,0,0,0,111.672,115.144Z" transform="translate(-85.628 -109.4)" fill="#30295e" fill-rule="evenodd"/>
      </g>
      <path id="XMLID_35_" d="M97.783,132.514a5.091,5.091,0,1,1-10.183,0,.892.892,0,0,1,.914-.914H96.8A.91.91,0,0,1,97.783,132.514Z" transform="translate(-52.222 -72.984)" fill="#fff" fill-rule="evenodd"/>
    </g>
  </g>
</svg>
