<svg xmlns="http://www.w3.org/2000/svg" width="135" height="135.2" viewBox="0 0 135 135.2">
  <g id="Avatar6" transform="translate(-1093 -546)">
    <circle id="Ellipse_54" data-name="Ellipse 54" cx="67.5" cy="67.5" r="67.5" transform="translate(1093 546)" fill="#858da1" opacity="0.2"/>
    <g id="XMLID_61_" transform="translate(931.2 515.7)">
      <path id="XMLID_62_" d="M208.5,137.055s2.814,4.02,5.695,5.494,27,5.427,44.219,0,2.814-19.966,2.814-19.966L252.652,105.7,209.84,117.894Z" transform="translate(-6.831 -20.263)" fill="#1c1341" fill-rule="evenodd"/>
      <path id="XMLID_63_" d="M244.39,121.7h0a11.423,11.423,0,0,1,11.39,11.39v21.841a11.423,11.423,0,0,1-11.39,11.39h0A11.423,11.423,0,0,1,233,154.931V133.09A11.423,11.423,0,0,1,244.39,121.7Z" transform="translate(-14.917 -25.543)" fill="#e9baa8" fill-rule="evenodd"/>
      <path id="XMLID_64_" d="M244.357,121.7h0a11.423,11.423,0,0,1,11.39,11.39v18.09a20.366,20.366,0,0,1-8.375,1.742c-5.36,0-10.385-2.613-14.472-6.633v-13.2A11.524,11.524,0,0,1,244.357,121.7Z" transform="translate(-14.884 -25.543)" fill="#d58881" fill-rule="evenodd"/>
      <g id="XMLID_65_" transform="translate(198.315 85.705)">
        <path id="XMLID_66_" d="M283.108,106.7c.2,0,.335.067.536.067h0A7.287,7.287,0,1,1,274.8,114a7.346,7.346,0,0,1,2.747-5.762c-.2,2.144.134,4.824,2.881,5.092l-.067-4.221A2.5,2.5,0,0,1,283.108,106.7Z" transform="translate(-227.026 -106.296)" fill="#d58881" fill-rule="evenodd"/>
        <path id="XMLID_67_" d="M209.863,106.1c-.2,0-.335.067-.536.067h0a7.364,7.364,0,0,0-5.829,6.9,7.271,7.271,0,0,0,14.539.335,7.317,7.317,0,0,0-2.68-5.829c.2,2.144-.2,4.824-2.948,5.025l.134-4.221C212.61,106.9,211.069,106.1,209.863,106.1Z" transform="translate(-203.494 -106.1)" fill="#d58881" fill-rule="evenodd"/>
      </g>
      <path id="XMLID_68_" d="M237.756,125.358c-13.534,0-24.856-16.75-24.856-29.948V77.856A24.934,24.934,0,0,1,237.756,53h0a24.934,24.934,0,0,1,24.856,24.856V95.008C262.68,109.48,252.764,125.358,237.756,125.358Z" transform="translate(-8.283 -2.871)" fill="#e9baa8" fill-rule="evenodd"/>
      <circle id="XMLID_69_" cx="3.417" cy="3.417" r="3.417" transform="translate(240.327 98.033)" fill="#d58881"/>
      <circle id="XMLID_70_" cx="3.417" cy="3.417" r="3.417" transform="translate(211.785 98.636)" fill="#d58881"/>
      <g id="XMLID_71_" transform="translate(213.428 79.219)">
        <path id="XMLID_72_" d="M234.727,97.143a1.065,1.065,0,1,1-.871,1.943,6.908,6.908,0,0,0-6.164.4,1.069,1.069,0,0,1-1.139-1.809A9.189,9.189,0,0,1,234.727,97.143Z" transform="translate(-226.052 -96.419)" fill="#30295e" fill-rule="evenodd"/>
        <path id="XMLID_73_" d="M271.418,97.671a1.035,1.035,0,0,1-1.005,1.809,6.889,6.889,0,0,0-6.164-.134,1.049,1.049,0,1,1-.938-1.876A9.15,9.15,0,0,1,271.418,97.671Z" transform="translate(-238.154 -96.477)" fill="#30295e" fill-rule="evenodd"/>
      </g>
      <path id="XMLID_74_" d="M251.562,119.227a21.366,21.366,0,0,1,1.206,3.953c-.067.536-2.881,1-3.551.335-.469-.469.134-2.546.67-3.886C250.557,117.686,250.959,117.552,251.562,119.227Z" transform="translate(-20.213 -24.343)" fill="#f1d3c8" fill-rule="evenodd"/>
      <path id="XMLID_75_" d="M247.5,78.472s8.107-4.623,13-.871,12.462,35.978,13,43.549c.536,7.5-2.211,9.983-2.211,9.983s17.152-3.819,17.42-16.951S270.346,70.7,270.346,70.7,253.329,70.7,247.5,78.472Z" transform="translate(-19.702 -8.712)" fill="#30295e" fill-rule="evenodd"/>
      <path id="XMLID_76_" d="M228.853,77.949s-4.69-4.623-9.648-.871c-4.891,3.752-12.462,35.978-13,43.549-.536,7.5,2.211,9.983,2.211,9.983S191.267,126.791,191,113.66s18.358-43.482,18.358-43.482S228.652,64.885,228.853,77.949Z" transform="translate(-1.055 -8.19)" fill="#30295e" fill-rule="evenodd"/>
      <path id="XMLID_77_" d="M209.592,81.283,204.5,78.737s1.742-3.551,1.943-13.065c.2-9.581,13.6-18.023,16.549-19.229s6.1.871,6.1.871a9.7,9.7,0,0,1,7.236-3.015c4.757,0,14.2,3.819,18.894,10.05,4.757,6.164,7.3,18.559,9.38,22.712,2.077,4.221-2.144,5.427-3.417,3.484-1.34-1.943-7.437-12.06-11.591-13.2s-10.05-2.412-16.281,2.412c0,0-1.608-4.958-5.561-5.226S209.592,81.283,209.592,81.283Z" transform="translate(-5.511)" fill="#30295e" fill-rule="evenodd"/>
      <path id="XMLID_83_" d="M271.213,192.538v-7.1A14.183,14.183,0,0,0,257.076,171.3h-55.14A14.183,14.183,0,0,0,187.8,185.437v7.1a65.91,65.91,0,0,0,83.413,0Z" transform="translate(0 -41.912)" fill="#b49a61" fill-rule="evenodd"/>
      <path id="XMLID_84_" d="M232,167.138s1.675,5.628,12.06,5.628,12.06-5.628,12.06-5.628V159.9l-.67-.4v1.608c-1.139,1.675-4.154,4.422-11.39,4.422s-10.251-2.747-11.39-4.422V159.5l-.67.4Z" transform="translate(-14.587 -38.018)" fill="#7e603c" fill-rule="evenodd"/>
      <g id="XMLID_85_" transform="translate(200.161 132.905)">
        <path id="XMLID_86_" d="M291.482,176.65a.332.332,0,0,1,.469.469s-2.881,3.015-2.881,10.184V202.11a6.221,6.221,0,0,1-.67.335V187.3C288.4,179.8,291.482,176.65,291.482,176.65Z" transform="translate(-233.361 -176.55)" fill="#7e603c" fill-rule="evenodd"/>
        <path id="XMLID_87_" d="M206.82,176.65a.332.332,0,0,0-.469.469s2.881,3.015,2.881,10.184V202.11a6.222,6.222,0,0,0,.67.335V187.3C209.834,179.8,206.82,176.65,206.82,176.65Z" transform="translate(-206.25 -176.55)" fill="#7e603c" fill-rule="evenodd"/>
      </g>
      <path id="XMLID_88_" d="M220.5,53.384c10.921,7.973,25.66,13.936,43.884,9.983a33.916,33.916,0,0,0-3.886-7.3,19.084,19.084,0,0,0-1.541-1.742A53.607,53.607,0,0,1,225.19,49.9C223.85,50.838,222.175,52.044,220.5,53.384Z" transform="translate(-10.792 -1.848)" fill="#48416e" fill-rule="evenodd"/>
      <g id="XMLID_89_" transform="translate(213.159 88.434)">
        <path id="XMLID_90_" d="M266.38,116.355a2.974,2.974,0,0,0,2.948-2.948,2.279,2.279,0,0,0-.067-.67l.335-.134a3.145,3.145,0,0,0,1.072-.67.379.379,0,0,0-.536-.536,2.678,2.678,0,0,1-1,.6h0a3.122,3.122,0,0,0,.938-.938.345.345,0,0,0-.6-.335,1.426,1.426,0,0,1-.8.737h0a1.708,1.708,0,0,0,.536-.8.382.382,0,1,0-.737-.2,1.136,1.136,0,0,1-.4.536,2.671,2.671,0,0,0-1.608-.469,2.974,2.974,0,0,0-2.948,2.948A2.859,2.859,0,0,0,266.38,116.355Z" transform="translate(-238.14 -110.174)" fill="#30295e" fill-rule="evenodd"/>
        <path id="XMLID_91_" d="M230.038,116.355a2.974,2.974,0,0,1-2.948-2.948,2.28,2.28,0,0,1,.067-.67l-.335-.134a3.145,3.145,0,0,1-1.072-.67.379.379,0,0,1,.536-.536,2.678,2.678,0,0,0,1,.6h0a3.122,3.122,0,0,1-.938-.938.345.345,0,0,1,.6-.335,1.426,1.426,0,0,0,.8.737h0a1.708,1.708,0,0,1-.536-.8.382.382,0,0,1,.737-.2,1.136,1.136,0,0,0,.4.536,2.671,2.671,0,0,1,1.608-.469,2.974,2.974,0,0,1,2.948,2.948A2.778,2.778,0,0,1,230.038,116.355Z" transform="translate(-225.65 -110.174)" fill="#30295e" fill-rule="evenodd"/>
      </g>
      <g id="XMLID_92_" transform="translate(224.247 106.541)">
        <path id="XMLID_93_" d="M252.652,138.235a5.226,5.226,0,0,1-10.452,0,.916.916,0,0,1,.938-.938h8.509A.9.9,0,0,1,252.652,138.235Z" transform="translate(-242.2 -137.23)" fill="#1c1341" fill-rule="evenodd"/>
        <path id="XMLID_94_" d="M244.467,137.2h7.5v.871a.887.887,0,0,1-.871.871h-5.829a.887.887,0,0,1-.871-.871V137.2Z" transform="translate(-242.926 -137.2)" fill="#fff" fill-rule="evenodd"/>
        <path id="XMLID_95_" d="M251.938,143.208a5.146,5.146,0,0,1-3.819,1.608,5.372,5.372,0,0,1-3.819-1.608,5.339,5.339,0,0,1,7.638,0Z" transform="translate(-242.893 -138.652)" fill="#d26070" fill-rule="evenodd"/>
      </g>
    </g>
  </g>
</svg>
