<svg xmlns="http://www.w3.org/2000/svg" width="135" height="135.21" viewBox="0 0 135 135.21">
  <g id="Avatar3" transform="translate(-1093 -376)">
    <circle id="Ellipse_54" data-name="Ellipse 54" cx="67.5" cy="67.5" r="67.5" transform="translate(1093 376)" fill="#858da1" opacity="0.2"/>
    <g id="XMLID_36_" transform="translate(1122 392)">
      <path id="XMLID_37_" d="M49.671,288.849s-8.328,1.678-10.627,7.83,5.531,16.655,7.085,25.356c1.554,8.763-.746,11.621-2.051,17.463-1.367,5.842.621,8.638,4.91,9.135,0,0-2.734,11.746,9.384,12.491,12.056.746,34.118,2.3,39.338-.124,5.22-2.361,6.339-15.288,1.243-21.005,0,0,4.474-9.695,1.056-15.723A114.7,114.7,0,0,1,102.06,310.1c1.678-7.706,8.949-19.576-6.65-32.627-15.6-13.113-35.175-4.6-39.09-1.678C52.219,278.781,50.169,283.131,49.671,288.849Z" transform="translate(-35.44 -270.378)" fill="#604b91" fill-rule="evenodd"/>
      <path id="XMLID_38_" d="M110.5,428.176v-6.525A13.089,13.089,0,0,0,97.448,408.6h-50.9A13.089,13.089,0,0,0,33.5,421.651v6.525a60.827,60.827,0,0,0,77,0Z" transform="translate(-33.5 -322.701)" fill="#e9baa8" fill-rule="evenodd"/>
      <path id="XMLID_39_" d="M101.852,408.6H98.682v9.508c0,4.785-1.864,8.949-5.282,8.949H64.44c-3.418,0-5.282-4.164-5.282-8.949V408.6H55.988s-.684,12.243-1.305,17.339a32.092,32.092,0,0,1-2.983,9.57,61.34,61.34,0,0,0,54.564,0,31.338,31.338,0,0,1-2.983-9.57C102.535,420.843,101.852,408.6,101.852,408.6Z" transform="translate(-40.389 -322.701)" fill="#d77357" fill-rule="evenodd"/>
      <path id="XMLID_40_" d="M88.965,359.2h0A10.6,10.6,0,0,1,99.53,369.765v20.2a10.6,10.6,0,0,1-10.565,10.565h0A10.6,10.6,0,0,1,78.4,389.962v-20.2A10.636,10.636,0,0,1,88.965,359.2Z" transform="translate(-50.497 -304.001)" fill="#e9baa8" fill-rule="evenodd"/>
      <path id="XMLID_41_" d="M89,359.2h0a10.6,10.6,0,0,1,10.565,10.565V386.42a18.6,18.6,0,0,1-7.706,1.616c-4.972,0-9.57-2.424-13.361-6.09V369.7A10.53,10.53,0,0,1,89,359.2Z" transform="translate(-50.534 -304.001)" fill="#d58881" fill-rule="evenodd"/>
      <g id="XMLID_42_" transform="translate(9.753 45.563)">
        <path id="XMLID_43_" d="M127.744,344.2c.186,0,.311.062.5.062h0a6.721,6.721,0,0,1,5.282,6.463,6.712,6.712,0,1,1-13.423.124,6.814,6.814,0,0,1,2.548-5.345c-.186,1.989.124,4.412,2.61,4.723l-.062-3.853A2.35,2.35,0,0,1,127.744,344.2Z" transform="translate(-76.035 -343.883)" fill="#d58881" fill-rule="evenodd"/>
        <path id="XMLID_44_" d="M55.039,343.7c-.186,0-.311.062-.5.062h0a6.743,6.743,0,1,0,5.655,1.429c.186,1.989-.186,4.412-2.734,4.661L57.587,346A2.4,2.4,0,0,0,55.039,343.7Z" transform="translate(-49.194 -343.694)" fill="#d58881" fill-rule="evenodd"/>
      </g>
      <path id="XMLID_45_" d="M81.394,357.569c-12.553,0-22.994-15.474-22.994-27.655v-16.22A23.062,23.062,0,0,1,81.394,290.7h0a23.062,23.062,0,0,1,22.994,22.994v15.847C104.388,342.965,95.252,357.569,81.394,357.569Z" transform="translate(-42.926 -278.071)" fill="#e9baa8" fill-rule="evenodd"/>
      <ellipse id="XMLID_46_" cx="3.169" cy="3.169" rx="3.169" ry="3.169" transform="translate(48.474 56.939)" fill="#d58881"/>
      <ellipse id="XMLID_47_" cx="3.169" cy="3.169" rx="3.169" ry="3.169" transform="translate(22.124 57.437)" fill="#d58881"/>
      <g id="XMLID_48_" transform="translate(23.772 39.55)">
        <path id="XMLID_49_" d="M79.612,334.691a.947.947,0,1,1-.746,1.74,6.288,6.288,0,0,0-5.655.373.949.949,0,0,1-.994-1.616A8.168,8.168,0,0,1,79.612,334.691Z" transform="translate(-71.752 -334.019)" fill="#30295e" fill-rule="evenodd"/>
        <path id="XMLID_50_" d="M116.088,335.193a.96.96,0,0,1-.932,1.678,6.39,6.39,0,0,0-5.717-.124.973.973,0,1,1-.87-1.74A8.488,8.488,0,0,1,116.088,335.193Z" transform="translate(-85.482 -334.086)" fill="#30295e" fill-rule="evenodd"/>
      </g>
      <path id="XMLID_51_" d="M95.879,357.085A21.855,21.855,0,0,1,97,360.876c-.062.5-2.61.621-3.294-.124-.435-.5.124-2.3.559-3.542C94.885,355.531,95.258,355.469,95.879,357.085Z" transform="translate(-56.23 -302.756)" fill="#f1d3c8" fill-rule="evenodd"/>
      <path id="XMLID_52_" d="M52.286,323.808l.808,4.972s2.983.373,2.983,3.045a9.162,9.162,0,0,0,1.678-6.152s5.655-6.587,5.407-13.983S60.054,301,60.054,301,50.67,307.9,52.286,323.808Z" transform="translate(-40.541 -281.969)" fill="#604b91" fill-rule="evenodd"/>
      <path id="XMLID_53_" d="M131.771,323.808l-.808,4.972s-2.983.373-2.983,3.045a9.162,9.162,0,0,1-1.678-6.152s-5.655-6.587-5.407-13.983S124,301,124,301,133.386,307.9,131.771,323.808Z" transform="translate(-66.58 -281.969)" fill="#604b91" fill-rule="evenodd"/>
      <path id="XMLID_54_" d="M60.559,306.961c7.209,9.135,13.734,6.463,10.192.746,0,0,23.74,10.627,32.129,6.215,8.452-4.35,1.554-19.141-8.949-23.3s-26.909-.5-30.824,5.655S60.559,306.961,60.559,306.961Z" transform="translate(-43.656 -277.366)" fill="#604b91" fill-rule="evenodd"/>
      <path id="XMLID_55_" d="M103.69,342.959c-.932-1.243-3.977-2.486-9.011-2.672a26.661,26.661,0,0,0-7.022.684c-1.864.373-3.977-.186-5.78-.186s-3.977.559-5.78.186a27.275,27.275,0,0,0-7.022-.684c-4.972.186-8.017,1.492-9.011,2.672A4.224,4.224,0,0,0,60,347c.435.746.621,2.8,1.367,4.785s2.237,4.847,6.215,5.407c3.977.5,6.152-.621,7.893-2.051,2.486-2.051,4.474-5.842,5.22-9.695a2.358,2.358,0,0,1-1.678-2.548s1.554-.124,2.983-.124c1.367,0,2.983.124,2.983.124a2.418,2.418,0,0,1-1.678,2.548c.746,3.853,2.734,7.644,5.22,9.695,1.74,1.429,3.915,2.548,7.893,2.051s5.469-3.356,6.215-5.407c.746-1.989.932-4.1,1.367-4.785.124-.684.621-2.8-.311-4.039Zm-25.6,3.48h0a14.954,14.954,0,0,1-3.169,7.582c-2.3,2.672-6.152,2.61-8.017,2.051a6.01,6.01,0,0,1-4.35-4.164c-.994-2.734-.932-6.712.311-8.2s3.853-2.175,5.717-2.361a17.151,17.151,0,0,1,6.463.746c2.175.621,2.859,1.678,3.045,2.734a4.7,4.7,0,0,1,0,1.616Zm22.994,5.469h0a5.9,5.9,0,0,1-4.35,4.164c-1.8.559-5.717.621-8.017-2.051a14.559,14.559,0,0,1-3.169-7.582,7.551,7.551,0,0,1,0-1.678c.186-.994.87-2.113,3.045-2.734a17.053,17.053,0,0,1,6.463-.746c1.864.186,4.474.87,5.717,2.362C102.012,345.2,102.136,349.112,101.079,351.908Z" transform="translate(-43.346 -296.833)" fill="#30295e" fill-rule="evenodd"/>
      <path id="XMLID_59_" d="M62.9,281.751c9.633,10.938,27.1,24.983,51.208,20.26a20.193,20.193,0,0,0-.87-9.26c-22.683,5.469-38.965-4.412-48.225-13.051A13.232,13.232,0,0,0,62.9,281.751Z" transform="translate(-44.629 -273.907)" fill="#7f6fa6" fill-rule="evenodd"/>
      <g id="XMLID_60_" transform="translate(23.46 47.85)">
        <path id="XMLID_61_" d="M111.471,353.17a2.759,2.759,0,0,0,2.734-2.734,2.114,2.114,0,0,0-.062-.621l.311-.124a2.24,2.24,0,0,0,.932-.621.352.352,0,1,0-.5-.5,1.726,1.726,0,0,1-.932.5h0a2.325,2.325,0,0,0,.87-.87.32.32,0,1,0-.559-.311,1.445,1.445,0,0,1-.684.684h0a2.234,2.234,0,0,0,.5-.746.354.354,0,0,0-.684-.186,1.054,1.054,0,0,1-.373.5,2.477,2.477,0,0,0-1.491-.435,2.759,2.759,0,0,0-2.734,2.734A2.63,2.63,0,0,0,111.471,353.17Z" transform="translate(-85.463 -347.374)" fill="#30295e" fill-rule="evenodd"/>
        <path id="XMLID_62_" d="M75.258,353.17a2.759,2.759,0,0,1-2.734-2.734,2.114,2.114,0,0,1,.062-.621l-.311-.124a2.24,2.24,0,0,1-.932-.621.352.352,0,0,1,.5-.5,1.726,1.726,0,0,0,.932.5h0a2.325,2.325,0,0,1-.87-.87.32.32,0,1,1,.559-.311,1.445,1.445,0,0,0,.684.684h0a2.235,2.235,0,0,1-.5-.746.354.354,0,0,1,.684-.186,1.054,1.054,0,0,0,.373.5A2.477,2.477,0,0,1,75.2,347.7a2.759,2.759,0,0,1,2.734,2.734A2.63,2.63,0,0,1,75.258,353.17Z" transform="translate(-71.25 -347.374)" fill="#30295e" fill-rule="evenodd"/>
      </g>
      <path id="XMLID_63_" d="M97.295,371.266a4.847,4.847,0,0,1-9.695,0,.85.85,0,0,1,.87-.87h7.893A.865.865,0,0,1,97.295,371.266Z" transform="translate(-53.979 -308.237)" fill="#fff" fill-rule="evenodd"/>
    </g>
  </g>
</svg>
